<?xml version="1.0" encoding="UTF-8"?> <svg xmlns="http://www.w3.org/2000/svg" width="523" height="352" viewBox="0 0 523 352"> <title>Group 3</title> <g fill="none" fill-rule="evenodd" stroke="#FFF" transform="translate(1 1)"> <path stroke-width=".701" d="M91.056 287.76l-1.795-.837-1.622 1.136.173 1.973 1.795.837 1.622-1.136-.173-1.973zM93.975 299.15l-.546-1.904-1.922-.48-1.376 1.425.546 1.904 1.922.479 1.376-1.425zM80.657 302.425l1.795.837 1.622-1.136-.173-1.973-1.795-.837-1.622 1.136.173 1.973zM77.756 292.061l1.425 1.376 1.904-.546.479-1.922-1.425-1.376-1.904.546-.479 1.922z"></path> <circle cx="85.512" cy="294.496" r="55.347" stroke-width="1.401"></circle> <circle cx="85.512" cy="294.496" r="42.627" stroke-width="1.401"></circle> <circle cx="85.512" cy="294.496" r="38.207" stroke-width=".701"></circle> <circle cx="85.512" cy="294.496" r="15.152" stroke-width=".701"></circle> <path stroke-width=".701" d="M97.263 261.323a2.452 2.452 0 00-3.406 2.114l-.342 5.842a1.751 1.751 0 001.064 1.715l1.473.625c.682.29 1.472.12 1.973-.425l3.964-4.305a2.452 2.452 0 00-.846-3.918l-3.88-1.648zM108.908 268.15a2.452 2.452 0 00-3.951.685l-2.503 5.288a1.751 1.751 0 00.344 1.987l1.132 1.133c.523.524 1.32.662 1.989.344l5.285-2.505a2.452 2.452 0 00.685-3.949l-2.981-2.982zM117.13 278.967a2.452 2.452 0 00-3.903-.914l-4.369 3.888a1.751 1.751 0 00-.46 1.964l.6 1.486a1.751 1.751 0 001.696 1.095l5.843-.24a2.452 2.452 0 002.173-3.368l-1.58-3.911zM120.54 292.523a2.452 2.452 0 00-3.284-2.306l-5.193 1.872c-.695.25-1.158.91-1.158 1.648v1.519c0 .738.463 1.397 1.158 1.648l5.193 1.872a2.452 2.452 0 003.284-2.307v-3.946zM118.711 305.496a2.452 2.452 0 00-2.114-3.406l-5.838-.341a1.751 1.751 0 00-1.714 1.064l-.626 1.476a1.751 1.751 0 00.425 1.972l4.3 3.963a2.452 2.452 0 003.92-.845l1.647-3.883zM111.889 317.147a2.452 2.452 0 00-.685-3.95l-5.285-2.505a1.751 1.751 0 00-1.99.345l-1.131 1.132a1.751 1.751 0 00-.344 1.988l2.503 5.288a2.452 2.452 0 003.95.684l2.982-2.982zM101.077 325.376a2.452 2.452 0 00.914-3.903l-3.888-4.373a1.751 1.751 0 00-1.965-.46l-1.484.6a1.751 1.751 0 00-1.094 1.695l.24 5.847a2.452 2.452 0 003.369 2.173l3.908-1.58zM88.28 328.729a2.452 2.452 0 002.307-3.284l-1.873-5.193a1.751 1.751 0 00-1.647-1.158h-1.52c-.738 0-1.397.463-1.647 1.158l-1.873 5.193a2.452 2.452 0 002.307 3.284h3.946zM74.556 326.956a2.452 2.452 0 003.407-2.114l.341-5.842a1.751 1.751 0 00-1.064-1.714l-1.473-.626a1.751 1.751 0 00-1.973.426l-3.963 4.304a2.452 2.452 0 00.845 3.918l3.88 1.648zM62.912 320.129a2.452 2.452 0 003.95-.684l2.504-5.288a1.751 1.751 0 00-.344-1.988l-1.132-1.132a1.751 1.751 0 00-1.99-.345l-5.285 2.505a2.452 2.452 0 00-.684 3.95l2.98 2.982zM54.756 309.379a2.452 2.452 0 003.92.845l4.3-3.963c.543-.502.714-1.291.425-1.972l-.626-1.476a1.751 1.751 0 00-1.715-1.064l-5.837.341a2.452 2.452 0 00-2.115 3.406l1.648 3.883zM51.28 296.47a2.452 2.452 0 003.284 2.306l5.193-1.872a1.751 1.751 0 001.157-1.648v-1.52c0-.737-.463-1.396-1.157-1.647l-5.193-1.872a2.452 2.452 0 00-3.284 2.306v3.946zM53.108 282.784a2.452 2.452 0 002.115 3.405l5.837.342a1.751 1.751 0 001.715-1.065l.626-1.475a1.751 1.751 0 00-.426-1.972l-4.3-3.964a2.452 2.452 0 00-3.92.846l-1.647 3.883zM59.93 271.133a2.452 2.452 0 00.685 3.95l5.286 2.504c.669.318 1.465.18 1.989-.344l1.132-1.133c.523-.523.66-1.319.344-1.987l-2.503-5.288a2.452 2.452 0 00-3.951-.684l-2.981 2.982zM70.742 262.904a2.452 2.452 0 00-.913 3.903l3.887 4.373a1.751 1.751 0 001.966.46l1.483-.6a1.751 1.751 0 001.094-1.696l-.24-5.847a2.452 2.452 0 00-3.368-2.173l-3.909 1.58zM84.334 259.469a2.452 2.452 0 00-2.307 3.284l1.873 5.193c.25.695.91 1.157 1.648 1.157h1.519c.738 0 1.397-.462 1.647-1.157l1.873-5.193a2.452 2.452 0 00-2.307-3.284h-3.946zM465.877 287.76l-1.795-.837-1.623 1.136.173 1.973 1.795.837 1.622-1.136-.172-1.973zM468.795 299.15l-.546-1.904-1.922-.48-1.375 1.425.546 1.904 1.921.479 1.376-1.425zM455.477 302.425l1.795.837 1.622-1.136-.172-1.973-1.795-.837-1.623 1.136.173 1.973zM452.577 292.061l1.424 1.376 1.904-.546.48-1.922-1.425-1.376-1.904.546-.48 1.922z"></path> <circle cx="460.333" cy="294.496" r="55.347" stroke-width="1.401"></circle> <circle cx="460.333" cy="294.496" r="42.627" stroke-width="1.401"></circle> <circle cx="460.333" cy="294.496" r="38.207" stroke-width=".701"></circle> <circle cx="460.333" cy="294.496" r="15.152" stroke-width=".701"></circle> <path stroke-width=".701" d="M472.083 261.323a2.452 2.452 0 00-3.406 2.114l-.341 5.842a1.751 1.751 0 001.064 1.715l1.472.625c.682.29 1.472.12 1.974-.425l3.963-4.305a2.452 2.452 0 00-.845-3.918l-3.88-1.648zM483.728 268.15a2.452 2.452 0 00-3.95.685l-2.504 5.288a1.751 1.751 0 00.344 1.987l1.132 1.133c.524.524 1.32.662 1.99.344l5.285-2.505a2.452 2.452 0 00.684-3.949l-2.981-2.982zM491.951 278.967a2.452 2.452 0 00-3.904-.914l-4.368 3.888a1.751 1.751 0 00-.46 1.964l.6 1.486a1.751 1.751 0 001.696 1.095l5.842-.24a2.452 2.452 0 002.174-3.368l-1.58-3.911zM495.36 292.523a2.452 2.452 0 00-3.284-2.306l-5.193 1.872c-.695.25-1.157.91-1.157 1.648v1.519c0 .738.462 1.397 1.157 1.648l5.193 1.872a2.452 2.452 0 003.284-2.307v-3.946zM493.531 305.496a2.452 2.452 0 00-2.114-3.406l-5.837-.341a1.751 1.751 0 00-1.715 1.064l-.626 1.476a1.751 1.751 0 00.425 1.972l4.3 3.963a2.452 2.452 0 003.92-.845l1.647-3.883zM486.709 317.147a2.452 2.452 0 00-.684-3.95l-5.286-2.505a1.751 1.751 0 00-1.989.345l-1.132 1.132a1.751 1.751 0 00-.344 1.988l2.503 5.288a2.452 2.452 0 003.95.684l2.982-2.982zM475.898 325.376a2.452 2.452 0 00.913-3.903l-3.888-4.373a1.751 1.751 0 00-1.965-.46l-1.484.6a1.751 1.751 0 00-1.093 1.695l.24 5.847a2.452 2.452 0 003.368 2.173l3.909-1.58zM463.1 328.729a2.452 2.452 0 002.307-3.284l-1.872-5.193a1.751 1.751 0 00-1.648-1.158h-1.519c-.738 0-1.397.463-1.648 1.158l-1.872 5.193a2.452 2.452 0 002.307 3.284h3.946zM449.377 326.956a2.452 2.452 0 003.406-2.114l.342-5.842a1.751 1.751 0 00-1.064-1.714l-1.473-.626a1.751 1.751 0 00-1.973.426l-3.964 4.304a2.452 2.452 0 00.846 3.918l3.88 1.648zM437.732 320.129a2.452 2.452 0 003.95-.684l2.504-5.288a1.751 1.751 0 00-.344-1.988l-1.132-1.132a1.751 1.751 0 00-1.989-.345l-5.286 2.505a2.452 2.452 0 00-.684 3.95l2.981 2.982zM429.576 309.379a2.452 2.452 0 003.92.845l4.3-3.963c.544-.502.714-1.291.425-1.972l-.626-1.476a1.751 1.751 0 00-1.715-1.064l-5.837.341a2.452 2.452 0 00-2.114 3.406l1.647 3.883zM426.1 296.47a2.452 2.452 0 003.284 2.306l5.193-1.872a1.751 1.751 0 001.158-1.648v-1.52c0-.737-.463-1.396-1.158-1.647l-5.193-1.872a2.452 2.452 0 00-3.284 2.306v3.946zM427.929 282.784a2.452 2.452 0 002.114 3.405l5.837.342a1.751 1.751 0 001.715-1.065l.626-1.475a1.751 1.751 0 00-.425-1.972l-4.3-3.964a2.452 2.452 0 00-3.92.846l-1.647 3.883zM434.751 271.133a2.452 2.452 0 00.684 3.95l5.286 2.504c.67.318 1.466.18 1.989-.344l1.132-1.133c.523-.523.66-1.319.344-1.987l-2.503-5.288a2.452 2.452 0 00-3.95-.684l-2.982 2.982zM445.563 262.904a2.452 2.452 0 00-.914 3.903l3.888 4.373a1.751 1.751 0 001.965.46l1.484-.6a1.751 1.751 0 001.093-1.696l-.239-5.847a2.452 2.452 0 00-3.369-2.173l-3.908 1.58zM459.155 259.469a2.452 2.452 0 00-2.307 3.284l1.872 5.193c.25.695.91 1.157 1.648 1.157h1.52c.737 0 1.396-.462 1.647-1.157l1.872-5.193a2.452 2.452 0 00-2.306-3.284h-3.946z"></path> <path stroke-width="1.401" d="M240.204 18.506a1072.62 1072.62 0 0 1 117.922-4.495c0 30.886-.736 49.17-4.11 89.412H196.968a.7.7 0 0 1-.696-.784l.228-1.895h0l3.628-30.225 40.076-52.013z"></path> <path stroke-width=".701" d="M200.128 70.519l-5.669-.64"></path> <path stroke-width="1.401" d="M237.852 13.242c51.558-3.68 93.313-4.906 125.267-3.68 0 24.795-1.3 56.082-3.903 93.861h3.903c.57 0 3.02 3.168 3.02 4.814H166.765s0 0 0 0a1.06 1.06 0 01-.84-1.709l.499-.646h0l71.428-92.64zM151.25 313.475h246.302c-.178-5.183-.178-8.655 0-10.416.432-4.287-.146-8.518 3.875-29.648 4.02-21.131 31.316-48.924 68.077-45.1 32.89 3.42 46.872 24.924 49.739 49.629.277 2.389.488 4.31.65 5.922.516 5.176.516-6.636.516-14.945v-19.16c-1.219-2.555-4.18-6.768-8.884-12.64-7.055-8.807-16.008-17.901-33.517-19.729-17.51-1.827-34.745 0-43.588 4.247-8.842 4.246-24.611 11.202-34.767 28.123-5.367 8.944-11.121 19.159-11.692 34.303-.083 2.2-.083 6.007 0 11.422H162.578c-2.065-19.852-8.644-36.918-19.738-51.196-7.786-10.02-24.427-28.192-59.603-26.899-35.175 1.294-55.723 22.193-65.656 45.804-1.109 2.904-1.688 6.035-3.556 6.96-1.868.924-4.948-.436-6.667-1.235-1.147-.534-3.305-1.532-6.475-2.995-.547 3.206-.82 5.38-.82 6.522 0 1.712-.608 16.193 1.975 21.443 2.584 5.25 13.699 20.537 15.543 20.537a3.098 3.098 0 003.11-3.059v-18.622c0-7.23 1.635-18.102 4.86-23.826 3.225-5.725 16.856-37.861 57.686-40.607 40.831-2.745 68.012 37.112 68.012 55.751v29.414z"></path> <path stroke-width=".701" d="M375.22 295.733c-.418 10.226-2.515 16.102-6.29 17.628"></path> <path stroke-width="1.401" d="M366.139 108.237c1.47.716 2.334 1.597 2.595 2.643.391 1.569 9.314 46.878 9.314 49.914 0 1.59-1.286 29.279-4.036 55.634-2.5 23.945-6.487 46.723-6.487 49.087v20.475l-146.963 1.27c-14.307.306-24.994-4.897-32.063-15.607-3.62-6.138-2.736-7.956-4.448-12.976-1.71-5.02-6.039-16.01-10.827-23.517-4.789-7.506-7.143-14.622-7.143-18.864 0-2.827-.116-39.105-.347-108.832"></path> <path stroke-width="1.401" d="M516.046 242.785c.934-2.282 1.402-4.21 1.402-5.783 0-2.36-2.09-6.766-2.528-8.023-.438-1.258-2.535-5.934-2.535-9.932V169.41c0-1.283 4.732-5.692 4.732-8.088v-53.085c0-1.482.925-4.814-1.07-4.814-1.996 0-2.217.353-2.217-.766 0-1.12-1.176-28.143-1.176-28.968 0-.826-.814-1.543-.814-2.612 0-1.07-3.032-35.457-6.097-42.616-.655-1.132.842-1.719.326-2.683-.517-.963-2.628-9.46-3.262-10.846-.634-1.385-2.466-6.041-10.048-6.85-7.582-.81-53.768-11.47-240.392-6.984-24.517 0-35.292 16.272-49.31 30.208-14.018 13.937-61.536 70.983-64.496 71.35-2.96.369-8.791 1.669-9.258 1.669-.466 0-2.225 1.616-2.225 2.378 0 .761.39 1.18-.362 1.534-.752.353-6.23 1.755-6.825 1.755-.595 0-45.612 8.323-49.704 9.236-4.092.914-17.065 4.775-24.524 7.819-7.46 3.044-16.921 10.646-20.09 16.445-.883 2.02 1.79 2.724 8.022 2.114 38.856-4.714 65.037-7.071 78.542-7.071 2.774-1.525 7.754-5.925 6.953-28.066"></path> <path stroke-width="1.401" d="M517.448 105.731h-4.55c-2.092.043-3.138 1.036-3.138 2.979v45.28c0 5.467-.552 6.17 2.471 6.17h4.962"></path> <path stroke-width=".701" d="M517.081 108.137h-2.475c-1.138.025-1.707.6-1.707 1.725v26.23c0 3.165-.3 3.572 1.345 3.572h2.699M517.081 141.766h-2.475c-1.138.013-1.707.307-1.707.882v13.405c0 1.619-.3 1.827 1.345 1.827h2.699M165.539 133.516h60.005c3.875.487 6.83 2.52 8.863 6.1 2.033 3.58 5.737 11.245 11.11 22.998h-80.381"></path> <path stroke-width="1.401" d="M193.404 146.67c0-3.482 2.823-5.605 6.306-5.605h14.012c3.482 0 6.305 2.123 6.305 5.605M220.027 154.452c0 3.482-2.823 5.53-6.305 5.53H199.71c-3.483 0-6.306-2.048-6.306-5.53"></path> <rect width="47.641" height="7.707" x="182.545" y="147.02" stroke-width=".701" rx="3.853"></rect> <path stroke-width="1.401" d="M126.716 108.237c.588.864 1.405 1.296 2.45 1.296 1.57 0 2.27-.065 2.784.75.512.817 2.31 3.158 3.011 3.493.701.335 1.823 1.99 6.688 1.388 4.866-.602 11.315-1.427 12.55-1.653 1.234-.227 4.462-.234 5.854-3.459 1.393-3.224 1.09-2.747 2.491-3.3 1.4-.555.825-.656 2.064-.656s.758-1.223.758-1.546c0-.322-1.06-1.66-2.087-2.158-.686-.332-1.319-.524-1.9-.574l-.245-.988h-1.812c-2.855-.676-9.595-.155-20.219 1.562"></path> <path stroke-width="1.401" d="M133.225 112.093c.672-1.279 2.337-2.024 4.996-2.235 3.988-.316 16.29-1.626 19.171-2.194 2.882-.567 3.094-1.481 3.647-2.28.553-.8.975-2.205-.37-3.38-.898-.783-1.99-1.27-3.277-1.46"></path> <path stroke-width=".701" d="M132.574 105.34c1.495-.458 11.914-2.903 23.745-3.599 1.551 0 2.124 1.922 1.376 2.909-.16.212-3.75.836-10.767 1.871-8.994 1.526-13.562 2.222-13.703 2.088-.393-.372-2.146-2.81-.651-3.268z"></path> <path stroke-width="1.401" d="M33.595 145.606c-6.276 7.896-10.71 15.462-13.304 22.697 4.649-.628 17.406-2.206 25.37-2.766 7.963-.561 17.192-1.15 17.65-1.15.459 0 7.657-7.11 10.079-8.139 2.422-1.03 20.57-3.07 22.352-3.372 1.781-.302 7.205-.186 11.254-4.815 2.7-3.085 4.678-6.41 5.933-9.972"></path> <path stroke-width="1.401" d="M27.236 145.801c-6.381 9.313-10.952 17.988-13.711 26.024-4.14 12.054-10.186 35.964-10.186 40.731v9.424c0 1.658-2.593 16.583-2.593 18.124 0 1.54-1.584 11.36 0 25.45"></path> <path stroke-width=".701" d="M10.173 183.044c2.633.562 3.95 1.173 3.95 1.831 0 .988-4.758 20.024-5.566 20.803-.807.778-3.865-2.428-3.865-2.428"></path> <path stroke-width="1.401" d="M3.383 216.296l9.78 2.922c2.072.784 2.75 2 2.034 3.65-1.074 2.473-5.819 18.087-6.475 21.765-.657 3.679-1.869 3.679-3.203 2.704-.89-.65-2.51-1.792-4.862-3.427"></path> <path stroke-width=".701" d="M14.123 224.778c-5.6-.882-8.744-1.176-9.431-.882-1.032.44-1.693 8.82-1.362 9.52.22.465 2.674 1.09 7.363 1.873"></path> <rect width="46.94" height="7.006" x="182.895" y="147.371" stroke-width="1.401" rx="3.503"></rect> <path stroke-width=".701" d="M112.929 138.998h17.399c7.813-.023 13.502 3.28 17.067 9.911 3.565 6.632 5.94 11.237 7.126 13.816l10.615-.111M165.458 129.142c-14.275-.132-30.511 1.038-48.708 3.509M13.64 310.884c-2.199-10.13-.787-26.53 4.236-49.204"></path> <path stroke-linecap="square" stroke-width=".701" d="M367.503 265.422H186.048"></path> <path stroke-width="1.401" d="M363.12 9.563c29.465 1.155 46.374 1.732 50.728 1.732 1.48 0 5.445 0 6.618.637 4.9 2.66 8.23 7.491 12.503 8.321 9.283 1.804 68.667 2.742 72.71 7.197"></path> <path stroke-width=".701" d="M245.517 162.614h132.531"></path> <path stroke-linecap="square" stroke-width=".701" d="M378.012 162.434h139.419"></path> <path stroke-width=".701" d="M511.84 71.077h-61.23c-8.786-1.197-14.77 2.43-17.953 10.884-3.182 8.453-6.778 15.607-10.789 21.462h-58.749M513.584 103.423h-79.185c-5.466-.048-9.51 2.597-12.133 7.935-3.933 8.006-16.379 30.23-24.94 39.516-8.56 9.285-14.02 11.38-19.278 11.56M366.139 108.137h58.002"></path> </g> </svg> 