<?xml version="1.0" encoding="UTF-8"?> <svg xmlns="http://www.w3.org/2000/svg" width="542" height="511" viewBox="0 0 542 511"> <title>Group 26</title> <g fill="none" fill-rule="evenodd"> <path stroke="#FFF" stroke-width="1.404" d="M394.335 339.134c-4.109 5.913-1.45 6.62-.204 7.099 1.245.478 18.214-3.757 18.214-3.757.278-.054.47.197.303.446-.922 1.187-2.264 3.177-2.102 4.01.162.833.49 1.778.49 1.778l-1.342 1.99c-.532.967-.228 1.052-.118 1.247l.357.723c.137.333-.17.61-.394.94l-5.786 8.401c-.168.249-.586.69-.09 1.026.415.28.832.198 1.526.063l.862-.383c.139-.027.25-.193.306-.276l3.66-4.89 4.194-1.03s1.83 5.335 2.602 5.977c0 0 1.768 1.313 2.742.763.974-.55 37.153-49.001 37.153-49.001 9.192-12.376 38.542-54.458 50.79-72.975 6.851-10.336 29.892-44.853 33.415-50.076.28-.414.31-.996.09-1.386l-5.619-12.234c-.22-.39-.663-.447-1.026-.089l-.391.58c-.075.111-.27.341-.586.69-.64.414-1.444.354-2.052-.177-.083-.055-.248-.167-.275-.306l-1.38-1.173c-.581-.39-1.248-.117-1.472.214l-1.007 1.493-.39.58c-.969-.532-1.97-.122-2.752 1.04-.951 1.408-2.544 3.59-3.55 5.083M465.441 238.007c-10.902 15.806-71.777 102.122-71.777 102.122"></path> <path stroke="#FFF" stroke-width="1.404" d="M520.252 185.717s-8.351 10.772-16.687 18.659c0 0-8.025 6.89-18.822 13.6 0 0-8.262 4.559-12.034 9.614-5.058 6.962-7.574 10.693-7.574 10.693"></path> <path stroke="#FFF" stroke-linecap="square" stroke-width=".702" d="M533.994 178.22s-77.342 115.737-88.162 131.599c-10.902 15.805-31.621 46.701-31.621 46.701M535.959 179.062c-78.014 116.733-79.101 117.808-89.473 133.007-10.903 15.805-31.622 46.702-31.622 46.702M524.575 212.034l4.026-5.97a.752.752 0 00-.023-.86l-.083-.055c-.22-.39-.802-.42-1.081-.006l-4.53 6.715a1.367 1.367 0 00-1.943.378l-10.43 15.642a2.609 2.609 0 00-.263 2.356l.274.667c.11.195.025.5-.087.665l-4.753 7.047c-.28.414-.254.914.048 1.36.276.306.775.28 1-.051l4.417-6.55s.223-.331.557-.468"></path> <path stroke="gray" stroke-width=".25" d="M524.575 212.034s-.224.331-.199.83"></path> <path stroke="#FFF" stroke-width="1.404" d="M479.924 252.48c-7.576 11.053-55.576 80.964-55.576 80.964s-8.335 2.7-11.613 3.626c-3.694 1.006-5.72 1.328-8.441 1.785-.972.189-2.803.4-1.182-2.003 2.125-3.15 9.701-14.204 9.701-14.204s65.067-92.173 66.964-94.271c.893-.966 11.835-8.784 21.835-16.634 0 0 5.879-4.96 6.91-5.954 1.032-.992 2.82-3.285 3.901-3.279l1.082.006-33.58 49.964z"></path> <g> <path stroke="#FFF" stroke-width="1.404" d="M147.72 339.134c4.109 5.913 1.45 6.62.205 7.099-1.246.478-18.215-3.757-18.215-3.757-.278-.054-.47.197-.303.446.922 1.187 2.264 3.177 2.102 4.01-.162.833-.49 1.778-.49 1.778l1.342 1.99c.533.967.228 1.052.118 1.247l-.357.723c-.136.333.17.61.394.94l5.786 8.401c.168.249.587.69.09 1.026-.415.28-.832.198-1.526.063l-.862-.383c-.139-.027-.25-.193-.306-.276l-3.66-4.89-4.194-1.03s-1.83 5.335-2.602 5.977c0 0-1.768 1.313-2.742.763-.974-.55-37.153-49.001-37.153-49.001-9.192-12.376-38.542-54.458-50.79-72.975-6.851-10.336-29.892-44.853-33.415-50.076-.28-.414-.31-.996-.09-1.386l5.62-12.234c.219-.39.662-.447 1.025-.089l.391.58c.075.111.27.341.586.69.64.414 1.445.354 2.052-.177.083-.055.249-.167.276-.306l1.38-1.173c.58-.39 1.247-.117 1.471.214l1.007 1.493.391.58c.968-.532 1.969-.122 2.752 1.04.95 1.408 2.543 3.59 3.55 5.083M76.614 238.007c10.902 15.806 71.777 102.122 71.777 102.122"></path> <path stroke="#FFF" stroke-width="1.404" d="M21.803 185.717s8.351 10.772 16.687 18.659c0 0 8.025 6.89 18.823 13.6 0 0 8.262 4.559 12.033 9.614 5.058 6.962 7.574 10.693 7.574 10.693"></path> <path stroke="#FFF" stroke-linecap="square" stroke-width=".702" d="M8.061 178.22s77.342 115.737 88.162 131.599c10.902 15.805 31.621 46.701 31.621 46.701M6.097 179.062C84.11 295.795 85.197 296.87 95.569 312.07c10.903 15.805 31.622 46.702 31.622 46.702M17.48 212.034l-4.026-5.97a.752.752 0 01.023-.86l.083-.055c.22-.39.802-.42 1.082-.006l4.529 6.715a1.367 1.367 0 011.943.378l10.43 15.642c.448.663.564 1.55.263 2.356l-.274.667c-.11.195-.025.5.087.665l4.753 7.047c.28.414.255.914-.048 1.36-.276.306-.775.28-.999-.051l-4.418-6.55s-.223-.331-.557-.468"></path> <path stroke="gray" stroke-width=".25" d="M17.48 212.034s.224.331.199.83"></path> <path stroke="#FFF" stroke-width="1.404" d="M62.131 252.48c7.576 11.053 55.576 80.964 55.576 80.964s8.335 2.7 11.613 3.626c3.694 1.006 5.72 1.328 8.441 1.785.972.189 2.804.4 1.182-2.003-2.125-3.15-9.701-14.204-9.701-14.204s-65.067-92.173-66.964-94.271c-.893-.966-11.835-8.784-21.835-16.634 0 0-5.879-4.96-6.91-5.954-1.032-.992-2.82-3.285-3.9-3.279l-1.083.006 33.581 49.964z"></path> </g> <g stroke="#FFF" transform="translate(114 1)"> <path stroke-width="1.404" d="M157.394.552s19.605.092 25.772.737c4.326.46 16.752 2.3 22.827 2.577 6.075.276 18.317.46 24.944 1.196 11.23 1.197 28.81 6.72 39.67 13.347 13.439 8.192 21.079 12.15 24.668 15.647 2.854 2.853 5.339 6.259 8.284 15.74 2.946 9.48 4.234 29.085 4.326 31.846.092 2.578.829 26.509.829 26.601 0 0 3.957 5.247 4.694 6.259.736 1.105 1.84 3.958 1.565 7.18-.277 3.22-1.197 5.338-1.75 6.534-.644 1.197-1.932 1.933-1.932 1.933v7.088l-3.038 2.117v2.485l-2.025.92s-.552 5.43-1.104 8.008c-.552 2.577-2.853 8.376-3.958 10.217-1.105 1.84-2.393 3.037-2.393 4.51 0 1.473-.552 92.504-.552 92.504l.276 60.564s4.142.092 4.602.737c.46.46.368 3.773.368 3.773h2.301l1.749 1.657h1.565s2.209 3.958 2.485 9.665c.276 5.706-2.21 77.408-3.13 92.78-.92 15.37-2.025 31.478-3.957 39.578-2.025 8.1-3.774 13.254-7.088 16.844-3.13 3.406-9.02 6.72-10.769 7.64-2.485 1.288-7.455 2.76-7.455 2.76s-8.192 9.573-17.857 9.573h-56.883s-4.326 2.67-13.714 3.498c-9.389.828-33.32 1.289-33.32 1.289"></path> <path stroke-linecap="square" stroke-width=".702" d="M311.199 137.237l-7.824-2.67-3.774 2.67s-.92 18.685-4.694 32.675c-3.774 13.99-11.137 30.19-11.137 30.19l-2.117 132.727h2.025s7.547-3.59 11.505-6.443c3.866-2.761 7.916-7.18 7.916-7.18"></path> <path stroke-width="1.404" d="M301.81 85.969c0 .276-.46.368-.552.092-1.749-5.8-8.652-27.061-18.409-39.119-11.413-14.083-25.772-19.145-36.265-23.287-10.493-4.142-10.4-13.714-10.4-13.714s20.617 3.497 36.54 17.856c15.924 14.359 18.317 21.17 19.33 23.563 1.012 2.393.92 3.682 1.472 5.615.553 1.933 3.59 9.48 5.431 13.162 1.84 3.682 2.393 6.535 2.761 9.573.184 1.932.184 4.602.092 6.259z"></path> <path stroke-linecap="square" stroke-width=".702" d="M237.84 16.108s16.752 2.853 31.94 15.095c15.186 12.241 20.065 22.182 20.065 22.182s.552 1.749.828 3.038c.184.828.736 3.957 2.485 7.363"></path> <path stroke-linecap="square" stroke-width=".702" d="M303.375 134.2s0-20.895-3.221-36.91c-3.222-16.016-10.954-31.847-19.606-42.708-8.652-10.861-26.232-23.287-53.385-32.031s-69.677-8.008-69.677-8.008"></path> <path stroke-linecap="square" stroke-width=".702" d="M204.428 503.477s.553-.276 1.013-.644a948.3 948.3 0 0 1 3.13-1.933s28.349.276 42.431 0c11.046-.184 14.083-3.59 17.12-8.836 3.038-5.246 3.59-14.543 3.958-20.065.276-5.523 2.301-47.587 2.301-70.138 0-22.55 3.774-170.924 4.142-184.086.553-17.304 3.13-22.367 11.874-44.457 6.535-16.476 5.246-54.49 5.246-54.49s-.184-3.314 1.841-5.43"></path> <path stroke-linecap="square" stroke-width=".702" d="M157.394 484.977H254.5c2.761 0 4.878 2.209 4.878 4.878v8.744c0 .644.092 1.197.368 1.749l1.473 3.13M278.984 493.629s11.137-10.217 13.622-22.643c2.209-11.137 3.498-55.87 3.774-65.075 0-1.104.276-2.209.644-3.221l7.824-20.71a.506.506 0 01.46-.276h3.682c.184 0 .368 0 .46-.092l.828-.46"></path> <path stroke-linecap="square" stroke-width=".702" d="M278.984 493.629s12.978-10.217 15.463-22.643c2.209-11.137 3.497-55.87 3.774-65.075 0-1.104.276-2.209.644-3.221l5.983-20.71a.506.506 0 01.46-.276s-3.13 63.418-4.234 74.279c-1.197 11.69-1.013 17.488-7.64 25.036M309.082 324.729l-.737 53.938M305.768 323.072l-.552 56.699"></path> <path stroke-width="1.404" d="M157.394 79.708s36.818-.183 67.652 5.34c26.6 4.786 49.52 10.77 55.226 12.334.829.184 1.473.92 1.565 1.84.828 5.523 3.498 25.68 2.945 39.12-.92 20.985-6.075 40.682-7.823 46.757-.277 1.105-1.381 1.75-2.486 1.565-6.627-1.012-29.177-4.51-51.452-6.72-24.852-2.484-65.627-2.484-65.627-2.484"></path> <path stroke-linecap="square" stroke-width=".702" d="M281.1 97.842h19.146s2.025 0 2.853-.736c.736-.737 1.749-2.577 1.749-2.577s1.564-.277 2.393-1.289c.92-1.105.828-4.602.828-4.602"></path> <path stroke-width="1.404" d="M157.394 7.916s26.785.828 39.119 2.669c12.333 1.84 30.558 5.799 33.32 4.05 2.577-1.657 1.012-3.958-.737-5.89-1.565-1.842-4.142-4.05-4.142-4.05M255.605 485.253l10.4-271.16s.553-19.605.553-21.998c0-2.486-.276-6.72-.276-6.72"></path> <path stroke-linecap="square" stroke-width=".702" d="M305.032 131.346s.46-.368 1.012-.46c1.565-.184 4.695-.276 4.695-.276v-.829l-3.958.092h-.645s-.644.092-.92.645c-.276.644-.184.828-.184.828zM308.437 108.611s-2.393-2.393-2.945-3.13c-.644-.644-2.301-2.024-2.301-2.024s3.59 2.393 4.786 3.59c1.013 1.012 1.38 1.288 1.38 1.288l-.92.276z"></path> <path stroke-width="1.404" d="M157.762.552s-19.605.092-25.772.737c-4.326.46-16.752 2.3-22.827 2.577-6.074.276-18.316.46-24.943 1.196-11.23 1.197-28.81 6.72-39.671 13.347-13.438 8.192-21.078 12.15-24.668 15.647-2.853 2.853-5.338 6.259-8.284 15.74-2.945 9.48-4.234 29.085-4.326 31.846-.092 2.578-.828 26.509-.828 26.601 0 0-3.958 5.247-4.694 6.259-.737 1.105-1.841 3.958-1.565 7.18.276 3.22 1.197 5.338 1.749 6.534.644 1.197 1.933 1.933 1.933 1.933v7.088l3.037 2.117v2.485l2.025.92s.552 5.43 1.105 8.008c.552 2.577 2.853 8.376 3.958 10.217 1.104 1.84 2.393 3.037 2.393 4.51 0 1.473.552 92.596.552 92.596l-.276 60.564s-4.142.092-4.602.737c-.46.46-.368 3.773-.368 3.773H9.388l-1.748 1.657H6.075s-2.21 3.958-2.485 9.665c-.276 5.706 2.209 77.408 3.13 92.78.92 15.37 2.024 31.478 3.957 39.578 2.025 8.1 3.774 13.254 7.087 16.844 3.13 3.406 9.02 6.72 10.77 7.64 2.485 1.288 7.455 2.761 7.455 2.761s8.192 9.572 17.856 9.572h56.883s4.326 2.67 13.715 3.498c9.388.829 33.411 1.289 33.411 1.289"></path> <path stroke-linecap="square" stroke-width=".702" d="M3.958 137.237l7.824-2.67 3.773 2.67s.92 18.685 4.695 32.675c3.773 13.99 11.137 30.19 11.137 30.19l2.117 132.727h-2.025s-7.548-3.59-11.506-6.443c-3.865-2.761-7.915-7.18-7.915-7.18"></path> <path stroke-width="1.404" d="M13.346 85.969c0 .276.46.368.553.092C15.647 80.26 22.55 59 32.307 46.942 43.721 32.86 58.08 27.797 68.572 23.655 79.065 19.513 78.973 9.941 78.973 9.941s-20.617 3.497-36.541 17.856c-15.924 14.359-18.317 21.17-19.33 23.563-1.012 2.393-.92 3.682-1.472 5.615-.552 1.933-3.59 9.48-5.43 13.162-1.841 3.682-2.393 6.535-2.762 9.573-.184 1.932-.092 4.602-.092 6.259z"></path> <path stroke-linecap="square" stroke-width=".702" d="M77.316 16.108S60.565 18.96 45.377 31.203C30.19 43.444 25.312 53.385 25.312 53.385s-.552 1.749-.828 3.038c-.185.828-.737 3.957-2.486 7.363"></path> <path stroke-linecap="square" stroke-width=".702" d="M11.782 134.2s0-20.895 3.221-36.91c3.222-16.016 10.953-31.847 19.605-42.708C43.26 43.72 60.841 31.295 87.993 22.55c27.153-8.744 69.77-8.008 69.77-8.008"></path> <path stroke-linecap="square" stroke-width=".702" d="M110.728 503.477s-.552-.276-1.012-.644c-.737-.46-3.13-1.933-3.13-1.933s-28.35.276-42.432 0c-11.045-.184-14.082-3.59-17.12-8.836-3.037-5.246-3.59-14.543-3.958-20.065-.276-5.523-2.3-47.587-2.3-70.138 0-22.55-3.775-170.924-4.143-184.086-.552-17.304-3.13-22.367-11.873-44.457-6.535-16.476-5.247-54.49-5.247-54.49s.184-3.314-1.84-5.43"></path> <path stroke-linecap="square" stroke-width=".702" d="M157.762 484.977H60.657c-2.762 0-4.879 2.209-4.879 4.878v8.744c0 .644-.092 1.197-.368 1.749l-1.473 3.13M36.173 493.629s-11.137-10.217-13.622-22.643c-2.21-11.137-3.498-55.87-3.774-65.075 0-1.104-.276-2.209-.644-3.221l-7.824-20.71a.506.506 0 00-.46-.276H6.167c-.184 0-.368 0-.46-.092l-.829-.46"></path> <path stroke-linecap="square" stroke-width=".702" d="M36.173 493.629s-12.978-10.217-15.463-22.643c-2.21-11.137-3.498-55.87-3.774-65.075 0-1.104-.276-2.209-.644-3.221l-5.983-20.71a.506.506 0 00-.46-.276s3.13 63.418 4.234 74.279c1.196 11.69 1.012 17.488 7.64 25.036M6.167 324.729l.644 53.938M9.48 323.072l.461 56.699"></path> <path stroke-width="1.404" d="M157.762 79.708s-36.817-.183-67.652 5.34c-26.6 4.786-49.519 10.77-55.226 12.334-.828.184-1.472.92-1.564 1.84-.829 5.523-3.498 25.68-2.946 39.12.92 20.985 6.075 40.682 7.824 46.757.276 1.105 1.38 1.75 2.485 1.565 6.627-1.012 29.178-4.51 51.452-6.72 24.852-2.484 65.627-2.484 65.627-2.484"></path> <path stroke-linecap="square" stroke-width=".702" d="M34.056 97.842H14.911s-2.025 0-2.853-.736c-.737-.737-1.75-2.577-1.75-2.577s-1.564-.277-2.392-1.289c-.92-1.105-.829-4.602-.829-4.602"></path> <path stroke-width="1.404" d="M157.762 7.916s-26.784.828-39.118 2.669c-12.334 1.84-30.558 5.799-33.32 4.05-2.577-1.657-1.012-3.958.737-5.89 1.564-1.842 4.142-4.05 4.142-4.05M59.644 485.253l-10.493-271.16s-.552-19.605-.552-21.998c0-2.486.276-6.72.276-6.72"></path> <path stroke-linecap="square" stroke-width=".702" d="M10.125 131.346s-.46-.368-1.013-.46c-1.564-.184-4.694-.276-4.694-.276v-.829l3.958.092h.644s.645.092.92.645c.277.644.185.828.185.828zM6.811 108.611s2.393-2.393 2.946-3.13c.644-.644 2.3-2.024 2.3-2.024s-3.589 2.393-4.786 3.59c-1.012 1.012-1.38 1.288-1.38 1.288l.92.276z"></path> <circle cx="157.394" cy="488.198" r="3.222" stroke-linecap="square" stroke-width=".702"></circle> </g> <g stroke="#FFF"> <path stroke-width="1.404" d="M294.972 316.523s-1.464-.648-1.47-2.87c-.007-2.107 1.146-7.954 3.77-10.813 2.625-2.86 16.974-17.795 18.783-19.37 3.677-3.207 7.424-2.143 9.362.261 1.938 2.405 2.892 8.726-3.875 15.376-6.417 6.417-6.949 4.836-9.98 8.454-.758.876-1.804 3.447-1.804 3.447"></path> <path stroke-width="1.404" d="M326.55 290.814s6.19-3.376 21.768-18.367c11.085-10.732 19.185-22.118 22.971-27.782 1.457-2.16.98-5.204-1.248-6.731-1.7-1.234-3.692-2.176-5.387-1.654-3.741 1.16-11.728 10.79-19.014 20.422-7.285 9.632-13.702 16.05-13.99 17.862-.287 1.813-.102 5.148-1.734 7.016-1.633 1.867-3.85 3.85-3.85 3.85M294.94 325.474L317 347.536c2.347 2.347 6.209 2.358 8.542.025l6.067-6.067c2.333-2.334 2.322-6.195-.025-8.542l-22.061-22.062c-2.347-2.347-6.209-2.358-8.542-.024l-6.067 6.067c-2.392 2.274-2.381 6.136.024 8.541z"></path> <path stroke-linecap="square" stroke-width=".702" d="M319.677 281.608s.132 5.032-4.709 10.342c-4.84 5.31-9.107 6.644-10.154 8.98-.93 1.987.894 5.444 1.014 6.615.238 1.288-.522 1.46-.522 1.46"></path> <path stroke-width="1.404" d="M300.683 288.633l3.462 3.462c.411.41 1.113.412 1.521.004l35.47-35.469a1.095 1.095 0 00-.005-1.52l-3.462-3.463a1.095 1.095 0 00-1.521-.004l-35.469 35.469c-.467.35-.406 1.11.004 1.52zM351.837 315.868s3.376-6.191 18.366-21.769c10.733-11.085 22.119-19.184 27.783-22.97 2.16-1.457 5.204-.98 6.731 1.247 1.234 1.7 2.176 3.693 1.654 5.388-1.16 3.74-10.79 11.728-20.422 19.013-9.632 7.286-16.05 13.703-17.862 13.99-1.813.287-5.148.102-7.016 1.735-1.867 1.633-3.85 3.85-3.85 3.85M354.018 341.734l-3.462-3.462a1.095 1.095 0 01-.004-1.52l35.469-35.47a1.095 1.095 0 011.52.005l3.463 3.462c.41.41.412 1.112.004 1.52l-35.469 35.47a1.095 1.095 0 01-1.52-.005zM346.053 318.602l-.061-.995a3.198 3.198 0 00-.942-1.992l-18.013-18.013c-.704-.704-1.7-1.117-2.695-1.178l-.468-.002"></path> <path stroke-width="1.404" d="M398.453 270.896l.408-.409c1.692-1.691 1.684-4.383-.017-6.084l-20.712-20.712c-1.702-1.702-4.393-1.71-6.085-.018l-.408.408"></path> <path stroke-linecap="square" stroke-width=".702" d="M388.644 277.772l-23.94-23.94M377.554 286.749l-21.769-21.768M368.278 296.024l-21.768-21.768M358.54 306.937l-22.943-22.942M306.594 309.478s-.22 4.445-1.736 6.664c-.874 1.226-5.658 5.893-7.176 6.942-1.342.99-4.213-.247-4.213-.247"></path> <path stroke-width="1.404" d="M326.07 347.504s.647 1.464 2.87 1.47c2.107.007 7.954-1.146 10.813-3.77 2.86-2.625 17.795-16.974 19.37-18.784 3.207-3.676 2.143-7.423-.262-9.361-2.404-1.938-8.725-2.892-15.375 3.875-6.417 6.417-4.836 6.948-8.455 9.98-.875.758-3.446 1.804-3.446 1.804"></path> <path stroke-linecap="square" stroke-width=".702" d="M361.042 322.74s-5.031-.131-10.341 4.71c-5.31 4.84-6.644 9.107-8.98 10.153-1.987.93-5.444-.893-6.615-1.014-1.288-.237-1.461.523-1.461.523M333.233 336.116s-4.446.221-6.665 1.736c-1.226.874-5.893 5.658-6.941 7.176-.991 1.343.246 4.213.246 4.213"></path> </g> <g stroke="#FFF"> <path stroke-width="1.404" d="M248.914 316.523s1.464-.648 1.47-2.87c.007-2.107-1.146-7.954-3.77-10.813-2.625-2.86-16.975-17.795-18.784-19.37-3.676-3.207-7.424-2.143-9.361.261-1.938 2.405-2.892 8.726 3.875 15.376 6.417 6.417 6.948 4.836 9.98 8.454.758.876 1.804 3.447 1.804 3.447"></path> <path stroke-width="1.404" d="M217.337 290.814s-6.192-3.376-21.77-18.367c-11.085-10.732-19.184-22.118-22.97-27.782-1.457-2.16-.98-5.204 1.248-6.731 1.7-1.234 3.692-2.176 5.387-1.654 3.74 1.16 11.728 10.79 19.014 20.422 7.285 9.632 13.702 16.05 13.99 17.862.287 1.813.101 5.148 1.734 7.016 1.633 1.867 3.85 3.85 3.85 3.85M248.946 325.474l-22.061 22.062c-2.347 2.347-6.209 2.358-8.542.025l-6.067-6.067c-2.334-2.334-2.323-6.195.024-8.542l22.062-22.062c2.347-2.347 6.209-2.358 8.542-.024l6.067 6.067c2.392 2.274 2.381 6.136-.025 8.541z"></path> <path stroke-linecap="square" stroke-width=".702" d="M224.208 281.608s-.131 5.032 4.71 10.342c4.84 5.31 9.107 6.644 10.153 8.98.93 1.987-.893 5.444-1.013 6.615-.238 1.288.522 1.46.522 1.46"></path> <path stroke-width="1.404" d="M243.202 288.633l-3.461 3.462c-.411.41-1.113.412-1.522.004l-35.468-35.469a1.095 1.095 0 01.004-1.52l3.462-3.463a1.095 1.095 0 011.521-.004l35.469 35.469c.467.35.406 1.11-.005 1.52zM192.049 315.868s-3.376-6.191-18.367-21.769c-10.733-11.085-22.118-19.184-27.782-22.97-2.16-1.457-5.204-.98-6.731 1.247-1.234 1.7-2.176 3.693-1.654 5.388 1.16 3.74 10.79 11.728 20.422 19.013 9.632 7.286 16.049 13.703 17.862 13.99 1.813.287 5.148.102 7.015 1.735 1.868 1.633 3.85 3.85 3.85 3.85M189.868 341.734l3.461-3.462c.411-.41.413-1.113.005-1.52l-35.469-35.47a1.095 1.095 0 00-1.521.005l-3.462 3.462a1.095 1.095 0 00-.004 1.52l35.468 35.47c.409.408 1.11.406 1.522-.005zM197.833 318.602l.061-.995c.06-.761.414-1.464.942-1.992l18.013-18.013c.704-.704 1.7-1.117 2.695-1.178l.468-.002"></path> <path stroke-width="1.404" d="M145.433 270.896l-.408-.409c-1.692-1.691-1.684-4.383.017-6.084l20.712-20.712c1.702-1.702 4.393-1.71 6.085-.018l.408.408"></path> <path stroke-linecap="square" stroke-width=".702" d="M155.242 277.772l23.94-23.94M166.332 286.749l21.769-21.768M175.607 296.024l21.769-21.768M185.346 306.937l22.942-22.942M237.292 309.478s.22 4.445 1.735 6.664c.874 1.226 5.658 5.893 7.177 6.942 1.342.99 4.213-.247 4.213-.247"></path> <path stroke-width="1.404" d="M217.816 347.504s-.647 1.464-2.87 1.47c-2.107.007-7.954-1.146-10.813-3.77-2.86-2.625-17.795-16.974-19.37-18.784-3.207-3.676-2.143-7.423.261-9.361 2.405-1.938 8.726-2.892 15.376 3.875 6.417 6.417 4.836 6.948 8.455 9.98.875.758 3.446 1.804 3.446 1.804"></path> <path stroke-linecap="square" stroke-width=".702" d="M182.843 322.74s5.032-.131 10.342 4.71c5.31 4.84 6.643 9.107 8.98 10.153 1.987.93 5.444-.893 6.615-1.014 1.287-.237 1.46.523 1.46.523M210.653 336.116s4.446.221 6.665 1.736c1.226.874 5.892 5.658 6.941 7.176.99 1.343-.246 4.213-.246 4.213"></path> </g> </g> </svg> 