<?xml version="1.0" encoding="UTF-8"?> <svg xmlns="http://www.w3.org/2000/svg" width="747" height="372" viewBox="0 0 747 372"> <title>Group 24</title> <g fill="none" fill-rule="evenodd" stroke="#FFF" transform="translate(1 1)"> <circle cx="691.092" cy="363.465" r="6.318" stroke-width="1.404" transform="rotate(64 691.092 363.465)"></circle> <path stroke-width="1.404" d="M696.965 360.323l13.477.942 32.921 2.303c1.613-1.51 1.682-2.317.207-2.42-1.242-.01-14.491-1.749-39.748-5.216l-2.863.173.925-9.666-185.795-20.51M497.97 356.213c1.407.132 7.845 3.13 9.41 3.191 1.043.04 5.266-1.385 12.668-4.277l22.324 1.585c1.653-.098 2.712-.615 3.177-1.55.466-.934.725-1.778.78-2.532l75.36 4.293 2.107-1.606 61.79 4.269"></path> <path stroke-width=".702" d="M91.238 307.628l-1.798-.838-1.626 1.138.173 1.977 1.799.839 1.625-1.139-.173-1.977zM94.163 319.04l-.547-1.907-1.926-.48-1.378 1.427.547 1.908 1.925.48 1.379-1.428zM80.818 322.323l1.798.838 1.626-1.138-.173-1.977-1.798-.839-1.626 1.139.173 1.977zM77.912 311.938l1.427 1.378 1.908-.547.48-1.925-1.428-1.379-1.907.547-.48 1.926z"></path> <circle cx="85.683" cy="314.378" r="55.458" stroke-width="1.404"></circle> <circle cx="85.683" cy="314.378" r="42.712" stroke-width="1.404"></circle> <circle cx="85.683" cy="314.378" r="38.284" stroke-width=".702"></circle> <circle cx="85.683" cy="314.378" r="15.183" stroke-width=".702"></circle> <path stroke-width=".702" d="M97.458 281.139a2.457 2.457 0 00-3.414 2.118l-.342 5.854a1.755 1.755 0 001.066 1.717l1.476.627c.683.29 1.475.12 1.977-.426l3.972-4.313a2.457 2.457 0 00-.847-3.926l-3.888-1.651zM109.125 287.98a2.457 2.457 0 00-3.958.685l-2.509 5.298c-.317.67-.179 1.468.345 1.992l1.135 1.135a1.755 1.755 0 001.993.345l5.296-2.51a2.457 2.457 0 00.685-3.957l-2.987-2.988zM117.365 298.817a2.457 2.457 0 00-3.912-.915l-4.377 3.896a1.755 1.755 0 00-.46 1.968l.6 1.489a1.755 1.755 0 001.7 1.096l5.854-.24a2.457 2.457 0 002.178-3.375l-1.583-3.919zM120.78 312.401a2.457 2.457 0 00-3.29-2.311l-5.203 1.876c-.696.25-1.16.911-1.16 1.65v1.523c0 .74.464 1.4 1.16 1.651l5.203 1.876a2.457 2.457 0 003.29-2.311v-3.954zM118.948 325.4a2.457 2.457 0 00-2.118-3.413l-5.85-.342a1.755 1.755 0 00-1.717 1.067l-.627 1.478a1.755 1.755 0 00.426 1.976l4.309 3.971a2.457 2.457 0 003.927-.847l1.65-3.89zM112.112 337.073a2.457 2.457 0 00-.685-3.957l-5.296-2.51a1.755 1.755 0 00-1.993.345l-1.135 1.135a1.755 1.755 0 00-.345 1.992l2.509 5.298a2.457 2.457 0 003.958.686l2.987-2.989zM101.28 345.319a2.457 2.457 0 00.915-3.91l-3.896-4.382a1.755 1.755 0 00-1.97-.461l-1.486.6a1.755 1.755 0 00-1.095 1.7l.24 5.859a2.457 2.457 0 003.375 2.177l3.916-1.583zM88.457 348.679a2.457 2.457 0 002.311-3.29l-1.876-5.204a1.755 1.755 0 00-1.651-1.16h-1.522c-.74 0-1.4.464-1.651 1.16l-1.876 5.203a2.457 2.457 0 002.31 3.29h3.955zM74.705 346.903a2.457 2.457 0 003.414-2.119l.342-5.853a1.755 1.755 0 00-1.066-1.718l-1.476-.627a1.755 1.755 0 00-1.977.427l-3.971 4.313a2.457 2.457 0 00.847 3.925l3.887 1.652zM63.038 340.062a2.457 2.457 0 003.958-.686l2.509-5.298c.317-.67.179-1.467-.345-1.992l-1.135-1.135a1.755 1.755 0 00-1.992-.345l-5.297 2.51a2.457 2.457 0 00-.685 3.957l2.987 2.989zM54.865 329.29a2.457 2.457 0 003.927.847l4.31-3.971a1.755 1.755 0 00.425-1.976l-.627-1.478a1.755 1.755 0 00-1.718-1.067l-5.849.342a2.457 2.457 0 00-2.118 3.413l1.65 3.89zM51.382 316.355a2.457 2.457 0 003.29 2.311l5.204-1.876a1.755 1.755 0 001.16-1.65v-1.523c0-.74-.464-1.4-1.16-1.651l-5.203-1.876a2.457 2.457 0 00-3.29 2.311v3.954zM53.215 302.642a2.457 2.457 0 002.118 3.412l5.85.342a1.755 1.755 0 001.717-1.066l.627-1.478a1.755 1.755 0 00-.426-1.976l-4.309-3.972a2.457 2.457 0 00-3.927.847l-1.65 3.89zM60.05 290.968a2.457 2.457 0 00.686 3.957l5.297 2.51c.67.318 1.468.18 1.992-.345l1.135-1.135a1.755 1.755 0 00.345-1.992l-2.509-5.298a2.457 2.457 0 00-3.958-.685l-2.987 2.988zM70.884 282.722a2.457 2.457 0 00-.916 3.91l3.896 4.382a1.755 1.755 0 001.97.461l1.486-.6a1.755 1.755 0 001.096-1.7l-.24-5.858a2.457 2.457 0 00-3.376-2.178l-3.916 1.583zM84.503 279.28a2.457 2.457 0 00-2.311 3.29l1.876 5.205c.25.695.911 1.16 1.65 1.16h1.523c.74 0 1.4-.465 1.65-1.16l1.877-5.204a2.457 2.457 0 00-2.311-3.29h-3.954zM466.808 307.628l-1.798-.838-1.626 1.138.173 1.977 1.799.839 1.625-1.139-.173-1.977zM469.733 319.04l-.547-1.907-1.926-.48-1.378 1.427.547 1.908 1.925.48 1.379-1.428zM456.388 322.323l1.798.838 1.626-1.138-.173-1.977-1.798-.839-1.626 1.139.173 1.977zM453.482 311.938l1.427 1.378 1.908-.547.48-1.925-1.428-1.379-1.907.547-.48 1.926z"></path> <circle cx="461.253" cy="314.378" r="55.458" stroke-width="1.404"></circle> <circle cx="461.253" cy="314.378" r="42.712" stroke-width="1.404"></circle> <circle cx="461.253" cy="314.378" r="38.284" stroke-width=".702"></circle> <circle cx="461.253" cy="314.378" r="15.183" stroke-width=".702"></circle> <path stroke-width=".702" d="M473.028 281.139a2.457 2.457 0 00-3.414 2.118l-.342 5.854a1.755 1.755 0 001.066 1.717l1.476.627c.683.29 1.475.12 1.977-.426l3.972-4.313a2.457 2.457 0 00-.847-3.926l-3.888-1.651zM484.695 287.98a2.457 2.457 0 00-3.958.685l-2.509 5.298c-.317.67-.179 1.468.345 1.992l1.135 1.135a1.755 1.755 0 001.993.345l5.296-2.51a2.457 2.457 0 00.685-3.957l-2.987-2.988zM492.935 298.817a2.457 2.457 0 00-3.912-.915l-4.377 3.896a1.755 1.755 0 00-.46 1.968l.6 1.489a1.755 1.755 0 001.7 1.096l5.854-.24a2.457 2.457 0 002.178-3.375l-1.583-3.919zM496.35 312.401a2.457 2.457 0 00-3.29-2.311l-5.203 1.876c-.696.25-1.16.911-1.16 1.65v1.523c0 .74.464 1.4 1.16 1.651l5.203 1.876a2.457 2.457 0 003.29-2.311v-3.954zM494.518 325.4a2.457 2.457 0 00-2.118-3.413l-5.85-.342a1.755 1.755 0 00-1.717 1.067l-.627 1.478a1.755 1.755 0 00.426 1.976l4.309 3.971a2.457 2.457 0 003.927-.847l1.65-3.89zM487.682 337.073a2.457 2.457 0 00-.685-3.957l-5.296-2.51a1.755 1.755 0 00-1.993.345l-1.135 1.135a1.755 1.755 0 00-.345 1.992l2.509 5.298a2.457 2.457 0 003.958.686l2.987-2.989zM476.85 345.319a2.457 2.457 0 00.915-3.91l-3.896-4.382a1.755 1.755 0 00-1.97-.461l-1.486.6a1.755 1.755 0 00-1.095 1.7l.24 5.859a2.457 2.457 0 003.375 2.177l3.916-1.583zM464.027 348.679a2.457 2.457 0 002.311-3.29l-1.876-5.204a1.755 1.755 0 00-1.651-1.16h-1.522c-.74 0-1.4.464-1.651 1.16l-1.876 5.203a2.457 2.457 0 002.31 3.29h3.955zM450.275 346.903a2.457 2.457 0 003.414-2.119l.342-5.853a1.755 1.755 0 00-1.066-1.718l-1.476-.627a1.755 1.755 0 00-1.977.427l-3.971 4.313a2.457 2.457 0 00.847 3.925l3.887 1.652zM438.608 340.062a2.457 2.457 0 003.958-.686l2.509-5.298c.317-.67.179-1.467-.345-1.992l-1.135-1.135a1.755 1.755 0 00-1.992-.345l-5.297 2.51a2.457 2.457 0 00-.685 3.957l2.987 2.989zM430.435 329.29a2.457 2.457 0 003.927.847l4.31-3.971a1.755 1.755 0 00.425-1.976l-.627-1.478a1.755 1.755 0 00-1.718-1.067l-5.849.342a2.457 2.457 0 00-2.118 3.413l1.65 3.89zM426.952 316.355a2.457 2.457 0 003.29 2.311l5.204-1.876a1.755 1.755 0 001.16-1.651v-1.522c0-.74-.464-1.4-1.16-1.651l-5.203-1.876a2.457 2.457 0 00-3.29 2.311v3.954zM428.785 302.642a2.457 2.457 0 002.118 3.412l5.85.342a1.755 1.755 0 001.717-1.066l.627-1.478a1.755 1.755 0 00-.426-1.976l-4.309-3.972a2.457 2.457 0 00-3.927.847l-1.65 3.89zM435.62 290.968a2.457 2.457 0 00.686 3.957l5.297 2.51c.67.318 1.468.18 1.992-.345l1.135-1.135a1.755 1.755 0 00.345-1.992l-2.509-5.298a2.457 2.457 0 00-3.958-.685l-2.987 2.988zM446.454 282.722a2.457 2.457 0 00-.916 3.91l3.896 4.382a1.755 1.755 0 001.97.461l1.486-.6a1.755 1.755 0 001.096-1.7l-.24-5.858a2.457 2.457 0 00-3.376-2.178l-3.916 1.583zM460.073 279.28a2.457 2.457 0 00-2.311 3.29l1.876 5.205c.25.695.911 1.16 1.65 1.16h1.523c.74 0 1.4-.465 1.65-1.16l1.877-5.204a2.457 2.457 0 00-2.311-3.29h-3.954z"></path> <path stroke-width="1.404" d="M240.684 37.836a1074.764 1074.764 0 0 1 118.158-4.504c0 30.947-.737 49.268-4.118 89.59H197.362a.702.702 0 0 1-.697-.785l.228-1.899h0l3.635-30.285 40.156-52.117z"></path> <path stroke-width=".702" d="M200.528 89.953l-5.68-.642"></path> <path stroke-width="1.404" d="M238.327 32.56c51.661-3.686 93.5-4.915 125.518-3.686 0 24.844-1.303 56.194-3.91 94.049h3.91c.57 0 3.026 3.174 3.026 4.823H167.099s0 0 0 0a1.063 1.063 0 01-.842-1.712l.5-.648h0l71.57-92.825zM151.552 333.394h246.795c-.178-5.193-.178-8.671 0-10.436.433-4.296-.146-8.535 3.883-29.708 4.028-21.173 31.379-49.022 68.213-45.19 32.955 3.428 46.966 24.974 49.838 49.728.278 2.394.49 4.318.651 5.935.518 5.186.518-6.65.518-14.976V269.55c-1.221-2.56-4.189-6.783-8.901-12.666-7.07-8.824-16.041-17.937-33.585-19.768-17.544-1.831-34.815 0-43.675 4.255s-24.66 11.224-34.836 28.179c-5.379 8.962-11.144 19.197-11.716 34.372-.083 2.203-.083 6.018 0 11.445H162.903c-2.069-19.893-8.661-36.992-19.778-51.299-7.801-10.04-24.475-28.248-59.721-26.952-35.246 1.296-55.835 22.237-65.788 45.895-1.11 2.91-1.691 6.047-3.563 6.973-1.872.927-4.958-.436-6.68-1.237-1.15-.534-3.312-1.535-6.488-3.001-.549 3.213-.823 5.39-.823 6.535 0 1.716-.608 16.225 1.98 21.487 2.59 5.26 13.726 20.577 15.574 20.577a3.104 3.104 0 003.117-3.065v-18.659c0-7.244 1.638-18.138 4.87-23.874 3.231-5.736 16.888-37.937 57.8-40.687 40.913-2.751 68.149 37.185 68.149 55.862v29.472z"></path> <path stroke-width=".702" d="M375.97 315.617c-.418 10.247-2.52 16.135-6.302 17.664"></path> <path stroke-width="1.404" d="M366.871 127.746c1.472.717 2.34 1.6 2.6 2.648.392 1.572 9.333 46.972 9.333 50.014 0 1.594-1.288 29.338-4.044 55.745-2.504 23.993-6.5 46.817-6.5 49.186v20.516l-147.257 1.272c-14.335.307-25.044-4.906-32.127-15.638-3.627-6.15-2.742-7.972-4.457-13.002-1.714-5.03-6.05-16.043-10.849-23.564-4.798-7.521-7.157-14.651-7.157-18.901 0-2.834-.116-39.184-.348-109.05"></path> <path stroke-width="1.404" d="M517.078 262.563c.936-2.287 1.404-4.219 1.404-5.795 0-2.364-2.094-6.779-2.532-8.039-.44-1.26-2.54-5.945-2.54-9.952v-49.736c0-1.285 4.741-5.703 4.741-8.104v-53.191c0-1.485.927-4.823-1.073-4.823s-2.22.353-2.22-.768c0-1.122-1.179-28.2-1.179-29.026 0-.827-.815-1.546-.815-2.618 0-1.071-3.038-35.527-6.11-42.7-.656-1.135.844-1.723.327-2.689-.518-.965-2.633-9.48-3.269-10.868-.635-1.388-2.47-6.053-10.068-6.864-7.596-.812-53.875-11.492-240.873-6.998-24.565 0-35.362 16.305-49.408 30.27-14.045 13.964-61.66 71.124-64.625 71.493-2.966.369-8.808 1.67-9.276 1.67-.467 0-2.23 1.62-2.23 2.383 0 .764.391 1.184-.363 1.538-.753.354-6.242 1.758-6.838 1.758-.596 0-45.703 8.34-49.804 9.255-4.1.916-17.099 4.784-24.573 7.834S28.8 157.261 25.625 163.071c-.885 2.024 1.794 2.73 8.037 2.118 38.934-4.723 65.167-7.085 78.7-7.085 2.779-1.528 7.769-5.936 6.966-28.121"></path> <path stroke-width="1.404" d="M518.482 125.235h-4.558c-2.097.043-3.145 1.038-3.145 2.985v45.371c0 5.478-.553 6.181 2.477 6.181h4.971"></path> <path stroke-width=".702" d="M518.115 127.646h-2.48c-1.14.025-1.71.601-1.71 1.729v26.28c0 3.173-.3 3.581 1.347 3.581h2.704M518.115 161.342h-2.48c-1.14.013-1.71.307-1.71.884v13.432c0 1.622-.3 1.83 1.347 1.83h2.704M229.642 26.346c-11.35 5.684-21.054 12.23-29.114 19.638-12.088 11.113-60.147 63.712-78.29 83.122M165.87 153.075h60.125c3.883.489 6.843 2.526 8.88 6.113 2.038 3.586 5.749 11.267 11.133 23.043h-80.542"></path> <path stroke-width="1.404" d="M193.791 166.256c0-3.49 2.829-5.616 6.318-5.616h14.04c3.49 0 6.318 2.127 6.318 5.616M220.467 174.053c0 3.49-2.828 5.541-6.318 5.541h-14.04c-3.49 0-6.318-2.051-6.318-5.54"></path> <rect width="47.736" height="7.722" x="182.91" y="166.607" stroke-width=".702" rx="3.861"></rect> <path stroke-width="1.404" d="M126.97 127.746c.588.865 1.407 1.298 2.455 1.298 1.572 0 2.275-.065 2.788.753.514.817 2.316 3.163 3.018 3.499.703.335 1.827 1.994 6.702 1.39 4.875-.603 11.337-1.429 12.574-1.656 1.237-.227 4.472-.234 5.867-3.465 1.394-3.231 1.092-2.753 2.495-3.308 1.403-.555.827-.656 2.068-.656s.76-1.226.76-1.549c0-.323-1.062-1.663-2.092-2.163-.686-.333-1.32-.524-1.903-.575l-.246-.99h-1.815c-2.861-.677-9.615-.155-20.26 1.565"></path> <path stroke-width="1.404" d="M133.491 131.61c.674-1.282 2.342-2.028 5.007-2.24 3.996-.316 16.322-1.63 19.21-2.198 2.886-.569 3.1-1.484 3.653-2.285.555-.8.977-2.209-.371-3.386-.9-.785-1.994-1.273-3.283-1.464"></path> <path stroke-width=".702" d="M132.839 124.844c1.498-.46 11.938-2.91 23.793-3.607 1.554 0 2.128 1.926 1.379 2.915-.161.212-3.758.837-10.79 1.875-9.011 1.53-13.588 2.226-13.73 2.092-.393-.373-2.15-2.816-.652-3.275z"></path> <path stroke-width="1.404" d="M33.662 165.19c-6.288 7.912-10.732 15.493-13.33 22.742 4.657-.629 17.44-2.21 25.42-2.772 7.98-.562 17.227-1.15 17.686-1.15.46 0 7.672-7.125 10.099-8.157 2.427-1.032 20.611-3.076 22.396-3.379 1.785-.302 7.22-.186 11.277-4.824 2.705-3.092 4.687-6.423 5.945-9.993"></path> <path stroke-width="1.404" d="M27.29 165.385c-6.394 9.332-10.973 18.024-13.738 26.076-4.148 12.078-10.207 36.037-10.207 40.813v9.442c0 1.661-2.598 16.617-2.598 18.16 0 1.544-1.587 11.384 0 25.502"></path> <path stroke-width=".702" d="M10.193 202.703c2.64.563 3.959 1.175 3.959 1.834 0 .99-4.769 20.065-5.578 20.845-.809.78-3.873-2.433-3.873-2.433"></path> <path stroke-width="1.404" d="M3.39 236.022l9.8 2.927c2.076.785 2.755 2.004 2.038 3.656-1.076 2.479-5.831 18.124-6.489 21.81-.658 3.686-1.872 3.686-3.21 2.71-.89-.651-2.514-1.796-4.87-3.434"></path> <path stroke-width=".702" d="M14.152 244.52c-5.612-.884-8.762-1.179-9.45-.884-1.034.442-1.697 8.839-1.366 9.539.221.466 2.68 1.092 7.378 1.877"></path> <rect width="47.034" height="7.02" x="183.261" y="166.958" stroke-width="1.404" rx="3.51"></rect> <path stroke-width=".702" d="M113.155 158.569h17.433c7.83-.024 13.53 3.286 17.102 9.93 3.572 6.645 5.952 11.26 7.14 13.844l10.636-.112M165.789 148.693c-14.304-.132-30.572 1.04-48.805 3.515M13.666 330.799c-2.202-10.15-.787-26.584 4.245-49.303"></path> <path stroke-linecap="square" stroke-width=".702" d="M368.238 285.245H186.42"></path> <path stroke-width="1.404" d="M363.845 28.874c29.525 1.158 46.468 1.737 50.83 1.737 1.484 0 5.457 0 6.632.638 4.91 2.665 8.246 7.506 12.528 8.337 9.301 1.808 68.804 2.748 72.855 7.212"></path> <path stroke-width=".702" d="M246.008 182.231h132.796"></path> <path stroke-linecap="square" stroke-width=".702" d="M378.768 182.051h139.698"></path> <path stroke-width=".702" d="M512.864 90.511h-61.352c-8.805-1.2-14.801 2.436-17.99 10.906-3.188 8.47-6.792 15.639-10.81 21.506h-58.867M514.611 122.923h-79.344c-5.476-.048-9.529 2.602-12.156 7.95-3.942 8.022-16.412 30.29-24.99 39.595-8.578 9.304-14.048 11.403-19.317 11.583M366.871 127.646h58.118"></path> <path stroke-width="1.404" d="M474.387 19.293V8.257c.733-2.553 2.618-4.216 5.657-4.988 3.039-.772 7.613-1.568 13.723-2.387 1.541-.333 2.493.017 2.857 1.048.363 1.032.676 1.55.94 1.556 12.868-1.337 27.832-1.586 44.892-.745 0-.81-.049-1.391 1.385-1.86 1.433-.467 11.657-2.202 18.998 1.05h12.208c-.137-1.033.763-1.55 2.7-1.55 2.905 0 41.652 1.55 45.358 1.55 3.707 0 2.963.458 3.707 2.418.495 1.307.88 3.238 1.156 5.794.47 1.608-.353 2.413-2.469 2.413h-7.226c-1.143.039-1.858.401-2.145 1.087-.43 1.03-1.958 1.247-3.674 1.247H490.321c-2.518-.162-5.221.406-8.11 1.702-2.887 1.296-5.495 2.196-7.824 2.7zM513.431 224.701l43.523 105.74M513.431 217.497l46.331 112.944M488.432 14.877l1.775 12.431M486.326 14.877l1.717 11.902M508.795 58.469l78.219-43.592M509.497 60.575l82.107-45.698"></path> </g> </svg> 