<?xml version="1.0" encoding="UTF-8"?> <svg xmlns="http://www.w3.org/2000/svg" width="290" height="346" viewBox="0 0 290 346"> <title>Group 23</title> <g fill="none" fill-rule="evenodd" transform="translate(1 1)"> <path stroke="#FFF" stroke-width=".701" d="M175.663 23.055l-1.567.459.459-1.568-.459-1.567 1.567.459 1.568-.459-.459 1.567.459 1.568z"></path> <circle cx="175.663" cy="21.946" r="4.434" stroke="#FFF" stroke-width=".701"></circle> <circle cx="178.619" cy="67.022" r="8.128" stroke="#FFF" stroke-width=".701"></circle> <path stroke="#FFF" stroke-width=".701" d="M178.619 63.327l3.2 1.848v3.694l-3.2 1.848-3.2-1.848v-3.694z"></path> <circle cx="186.748" cy="112.837" r="8.128" stroke="#FFF" stroke-width=".701"></circle> <path stroke="#FFF" stroke-width=".701" d="M186.748 109.142l3.199 1.847v3.695l-3.199 1.847-3.2-1.847v-3.695z"></path> <circle cx="195.615" cy="158.651" r="8.128" stroke="#FFF" stroke-width=".701"></circle> <path stroke="#FFF" stroke-width=".701" d="M195.615 154.957l3.2 1.847v3.695l-3.2 1.847-3.2-1.847v-3.695z"></path> <circle cx="203.743" cy="204.466" r="8.128" stroke="#FFF" stroke-width=".701"></circle> <path stroke="#FFF" stroke-width=".701" d="M203.743 200.771l3.2 1.848v3.694l-3.2 1.848-3.199-1.848v-3.694z"></path> <circle cx="211.872" cy="250.281" r="8.128" stroke="#FFF" stroke-width=".701"></circle> <path stroke="#FFF" stroke-width=".701" d="M211.872 246.586l3.2 1.847v3.695l-3.2 1.848-3.2-1.848v-3.695z"></path> <circle cx="220" cy="296.096" r="8.128" stroke="#FFF" stroke-width=".701"></circle> <path stroke="#FFF" stroke-width=".701" d="M220 292.401l3.2 1.847v3.695l-3.2 1.847-3.2-1.847v-3.695z"></path> <path stroke="#FFF" stroke-width="1.401" d="M228.129 67.761l4.479 2.586v5.173l-4.479 2.586-4.48-2.586v-5.173z"></path> <circle cx="228.129" cy="72.933" r="8.128" stroke="#FFF" stroke-width="1.401"></circle> <path stroke="#FFF" stroke-width="1.401" d="M272.465 310.875l4.48 2.586v5.172l-4.48 2.587-4.479-2.587v-5.172z"></path> <circle cx="272.465" cy="316.047" r="8.128" stroke="#FFF" stroke-width="1.401"></circle> <path stroke="#FFF" stroke-width="1.401" d="M143.889 34.695h37.398c5.962-.241 10.492 1.16 13.589 4.203 4.646 4.566 12.507 9.731 15.582 9.731 3.075 0 16.07.491 21.233 3.301 3.442 1.874 5.74 6.887 6.892 15.04 32.603 174.055 48.993 262 49.169 263.836.264 2.754-1.502 7.426-7.278 9.262-3.058.972-8.709 2.818-13.196 2.407-3.527-.323-5.512-2.016-5.91-2.016-.907 0-1.494 3.04-6.358 3.04H143.89"></path> <path stroke="#FFF" stroke-width="1.401" d="M143.889 0h23.892c5.723 0 15.435 5.435 15.435 15.278v19.39"></path> <path stroke="#FFF" stroke-width="1.401" d="M143.889 9.606h10.38c9.283 0 12.527 6.827 12.527 12.562v12.563"></path> <path stroke="#FFF" stroke-width=".701" d="M210.458 48.629l50.809 291.6-21.978-25.712-50.886-279.133"></path> <path stroke="#FFF" stroke-width="1.401" d="M143.889 40.373h22.907c10.032 0 17.565 3.841 19.736 12.597 2.171 8.756 45.807 250.514 46.385 254.038.578 3.525-1.784 6.245-3.694 6.245h-10.561c-1.985 0-6.968 0-8.105-4.22-1.137-4.221-42.796-236.778-43.761-243.045-.965-6.267-6.378-9.61-9.39-9.61h-13.517"></path> <path stroke="#FFF" stroke-width=".701" d="M112.114 23.055l1.568.459-.46-1.568.46-1.567-1.568.459-1.567-.459.459 1.567-.46 1.568z"></path> <circle cx="112.114" cy="21.946" r="4.434" stroke="#FFF" stroke-width=".701" transform="matrix(-1 0 0 1 224.228 0)"></circle> <circle cx="109.158" cy="67.022" r="8.128" stroke="#FFF" stroke-width=".701" transform="matrix(-1 0 0 1 218.316 0)"></circle> <path stroke="#FFF" stroke-width=".701" d="M109.158 63.327l-3.2 1.848v3.694l3.2 1.848 3.2-1.848v-3.694z"></path> <circle cx="101.03" cy="112.837" r="8.128" stroke="#FFF" stroke-width=".701" transform="matrix(-1 0 0 1 202.06 0)"></circle> <path stroke="#FFF" stroke-width=".701" d="M101.03 109.142l-3.2 1.847v3.695l3.2 1.847 3.2-1.847v-3.695z"></path> <circle cx="92.162" cy="158.651" r="8.128" stroke="#FFF" stroke-width=".701" transform="matrix(-1 0 0 1 184.325 0)"></circle> <path stroke="#FFF" stroke-width=".701" d="M92.163 154.957l-3.2 1.847v3.695l3.2 1.847 3.199-1.847v-3.695z"></path> <circle cx="84.034" cy="204.466" r="8.128" stroke="#FFF" stroke-width=".701" transform="matrix(-1 0 0 1 168.068 0)"></circle> <path stroke="#FFF" stroke-width=".701" d="M84.034 200.771l-3.2 1.848v3.694l3.2 1.848 3.2-1.848v-3.694z"></path> <circle cx="75.905" cy="250.281" r="8.128" stroke="#FFF" stroke-width=".701" transform="matrix(-1 0 0 1 151.81 0)"></circle> <path stroke="#FFF" stroke-width=".701" d="M75.906 246.586l-3.2 1.847v3.695l3.2 1.848 3.199-1.848v-3.695z"></path> <circle cx="67.777" cy="296.096" r="8.128" stroke="#FFF" stroke-width=".701" transform="matrix(-1 0 0 1 135.554 0)"></circle> <path stroke="#FFF" stroke-width=".701" d="M67.777 292.401l-3.2 1.847v3.695l3.2 1.847 3.2-1.847v-3.695z"></path> <path stroke="#FFF" stroke-width="1.401" d="M59.648 67.761l-4.479 2.586v5.173l4.48 2.586 4.48-2.586v-5.173z"></path> <circle cx="59.649" cy="72.933" r="8.128" stroke="#FFF" stroke-width="1.401" transform="matrix(-1 0 0 1 119.297 0)"></circle> <path stroke="#FFF" stroke-width="1.401" d="M15.312 310.875l-4.48 2.586v5.172l4.48 2.587 4.48-2.587v-5.172z"></path> <circle cx="15.312" cy="316.047" r="8.128" stroke="#FFF" stroke-width="1.401" transform="matrix(-1 0 0 1 30.624 0)"></circle> <path stroke="#FFF" stroke-width="1.401" d="M143.889 34.695H106.49c-5.962-.241-10.492 1.16-13.589 4.203-4.645 4.566-12.507 9.731-15.582 9.731-3.075 0-16.07.491-21.233 3.301-3.442 1.874-5.74 6.887-6.892 15.04C16.59 241.026.202 328.97.025 330.807c-.264 2.754 1.502 7.426 7.278 9.262 3.058.972 8.71 2.818 13.197 2.407 3.526-.323 5.511-2.016 5.91-2.016.906 0 1.493 3.04 6.357 3.04h111.122"></path> <path stroke="#FFF" stroke-width="1.401" d="M143.889 0h-23.893c-5.723 0-15.435 5.435-15.435 15.278v19.39"></path> <path stroke="#FFF" stroke-width="1.401" d="M143.889 9.606h-10.38c-9.284 0-12.528 6.827-12.528 12.562v12.563"></path> <path stroke="#FFF" stroke-width=".701" d="M77.319 48.629l-50.808 291.6 21.977-25.712L99.375 35.384"></path> <path stroke="#FFF" stroke-width="1.401" d="M143.889 40.373H120.98c-10.031 0-17.565 3.841-19.736 12.597-2.171 8.756-45.807 250.514-46.385 254.038-.578 3.525 1.784 6.245 3.695 6.245h10.56c1.985 0 6.968 0 8.105-4.22 1.137-4.221 42.796-236.778 43.761-243.045.966-6.267 6.378-9.61 9.391-9.61h13.517M139.455 34.508V24.163c1.515-.493 3.005-.739 4.47-.739 1.466 0 2.932.246 4.397.739v10.345"></path> <path d="M153.495 323.437V349.3c-3.177.985-6.37 1.478-9.581 1.478-3.21 0-6.421-.493-9.632-1.478v-25.863"></path> <ellipse cx="143.889" cy="326.392" rx="11.823" ry="5.912"></ellipse> <circle cx="143.889" cy="142.395" r="9.606" stroke="#FFF" stroke-width="1.035"></circle> <path stroke="#FFF" stroke-width="1.035" d="M136.482 136.803h14.636"></path> <path stroke="#FFF" stroke-width=".701" d="M239.289 314.517H48.488"></path> </g> </svg> 