<?xml version="1.0" encoding="UTF-8"?> <svg xmlns="http://www.w3.org/2000/svg" xmlns:xlink="http://www.w3.org/1999/xlink" width="201px" height="21px" viewBox="0 0 201 21"> <!-- Generator: Sketch 60 (88103) - https://sketch.com --> <title>Group 3</title> <desc>Created with Sketch.</desc> <g id="Page-1" stroke="none" stroke-width="1" fill="none" fill-rule="evenodd"> <g id="[LG]-Large-Desktop-(1200px-or-more)-(LG-or-bigger)-Copy-10" transform="translate(-150.000000, -50.000000)" fill="#FFFFFF" fill-rule="nonzero"> <g id="Group-3" transform="translate(150.000000, 50.000000)"> <g id="Group-2"> <g id="Group"> <path d="M8.63150051,20.9808967 C7.32671964,20.9393371 6.05696309,20.5556602 4.95373073,19.8696008 C3.90979236,19.210542 2.9998544,18.3661314 2.27045992,17.3795603 C1.53088574,16.3709152 0.962179272,15.2513051 0.586379111,14.0641175 C0.204395646,12.9018714 0.00662183615,11.6887688 0,10.4673924 L0,2.67448793 C0,1.19740903 1.21814324,0 2.72079908,0 C4.22345491,0 5.44159815,1.19740903 5.44159815,2.67448793 L5.44159815,10.4673924 C5.44732727,11.047604 5.51493508,11.6256257 5.64331256,12.191976 C5.76792225,12.7860739 6.01367026,13.3492029 6.36573163,13.8473918 C6.747381,14.3711431 7.24039827,14.8069914 7.81056976,15.1246903 C8.55768428,15.4966888 9.38977853,15.6729808 10.2264517,15.636532 L28.8967626,15.636532 C29.7275716,15.6685784 30.552871,15.4907698 31.2938804,15.1200791 C31.8733463,14.8120746 32.3738636,14.3784226 32.7574827,13.852003 C33.109544,13.3538141 33.355292,12.7906851 33.4799017,12.1965872 C33.6082792,11.6302369 33.675887,11.0522152 33.6816161,10.4720036 L33.6816161,2.67448793 C33.6816161,1.19740903 34.8997594,0 36.4024152,0 C37.905071,0 39.1232143,1.19740903 39.1232143,2.67448793 L39.1232143,10.4673924 C39.1189213,11.7209445 38.9131042,12.965953 38.51338,14.1563413 C38.1171933,15.3694467 37.514438,16.5076621 36.7307875,17.5225071 C35.9528224,18.5277174 34.9823171,19.3736165 33.8739485,20.0125476 C32.703898,20.6761631 31.3733367,21.0170809 30.0226105,20.9993414 L8.63150051,20.9808967 Z" id="Path"></path> <path d="M81.1548883,20.9976582 C80.6793142,20.9955417 80.206431,20.9273349 79.7502683,20.7950612 C79.3022237,20.6683354 78.8749404,20.4791668 78.4814282,20.2333149 L57.0469268,7.34077706 C56.4710326,7.01385913 55.9840977,6.74679942 55.6001682,6.55341135 C55.3745318,6.41581528 55.1198956,6.33076818 54.8557196,6.30476955 C54.7339858,6.30476955 54.532657,6.30476955 54.4249694,6.81586659 C54.2867228,7.62034118 54.2271446,8.43598832 54.2470509,9.25163535 L54.2470509,18.3224566 C54.2470509,19.7973867 53.031236,20.9930538 51.5314522,20.9930538 C50.0316685,20.9930538 48.8158535,19.7973867 48.8158535,18.3224566 L48.8158535,4.92803068 C48.7822773,3.62252929 49.2892096,2.35958241 50.2204735,1.42862755 C51.146558,0.488562706 52.4295317,-0.028806347 53.760116,0.00123942392 C54.2357374,0.00273397976 54.7087095,0.0709536647 55.164736,0.203836448 C55.6127805,0.330562222 56.0400639,0.519730917 56.4335761,0.765582741 L77.8680775,13.6581206 C78.4486537,13.9850385 78.9355887,14.2520983 79.3148361,14.4454863 C79.5533823,14.5875925 79.8231414,14.6712847 80.1014233,14.6895236 C80.223157,14.6895236 80.4244859,14.6895236 80.5321734,14.1784266 C80.67042,13.373952 80.7299983,12.5583049 80.710092,11.7426578 L80.710092,2.67183655 C80.710092,1.19690649 81.9259069,0.00123942392 83.4256906,0.00123942392 C84.9254744,0.00123942392 86.1412893,1.19690649 86.1412893,2.67183655 L86.1412893,16.070867 C86.1748655,17.3763684 85.6679332,18.6393153 84.7366693,19.5702701 C83.8005764,20.5211151 82.4999904,21.0394162 81.1548883,20.9976582 L81.1548883,20.9976582 Z" id="Path"></path> <path d="M98.8848214,21 C98.1697415,21.0036626 97.4828712,20.7234373 96.9772264,20.2217146 C96.4715817,19.7199919 96.1891659,19.0384492 96.1928571,18.3289158 L96.1928571,2.67104803 C96.1928571,1.19586894 97.3981107,0 98.8848214,0 C100.371532,0 101.576786,1.19586894 101.576786,2.67104803 L101.576786,18.3289158 C101.580477,19.0384492 101.298061,19.7199919 100.792416,20.2217146 C100.286772,20.7234373 99.5999013,21.0036626 98.8848214,21 L98.8848214,21 Z" id="Path"></path> <path d="M149.0855,21 C148.36272,21.0035867 147.668453,20.7234065 147.157363,20.2217644 C146.646273,19.7201223 146.360816,19.0386892 146.364584,18.3292699 L146.364584,8.29142736 C146.364584,7.79413975 146.364584,7.44880113 146.336437,7.20936636 C146.167552,7.37512889 145.942373,7.61456367 145.637443,7.95069326 L135.316728,19.4619805 C134.860818,19.9764507 134.284501,20.3746268 133.637266,20.6223183 C132.286352,21.1258939 130.794218,21.1258939 129.443303,20.6223183 C128.795258,20.3736605 128.217635,19.9756938 127.75915,19.4619805 L117.438435,7.95069326 C117.128814,7.59614561 116.903634,7.35210632 116.744133,7.18634378 C116.744133,7.4073605 116.711294,7.72046751 116.711294,8.16250094 L116.711294,18.3292699 C116.711294,19.8042118 115.493098,21 113.990378,21 C112.487658,21 111.269462,19.8042118 111.269462,18.3292699 L111.269462,4.88408633 C111.238394,3.64151281 111.659153,2.42868682 112.456345,1.46293175 C113.267514,0.492781782 114.49544,-0.0476101196 115.773047,0.00330052582 C116.573086,-0.00440031523 117.358886,0.211173391 118.038913,0.624910038 C118.675469,1.02297987 119.258611,1.49788595 119.77467,2.03849612 L130.564508,14.1115342 C130.724783,14.2613356 130.895658,14.3998169 131.075852,14.5259405 C131.33387,14.7469573 131.718551,14.7469573 131.976569,14.5259405 C132.165179,14.3946254 132.342478,14.2483237 132.506679,14.0885116 L143.38565,1.89115164 L143.432563,1.89115164 C143.872095,1.35048193 144.41564,0.899903845 145.032274,0.565051345 C145.73415,0.189401756 146.522188,-0.00396603018 147.321596,0.00330052582 C148.599203,-0.0476101196 149.827129,0.492781782 150.638298,1.46293175 C151.43549,2.42868682 151.856249,3.64151281 151.82518,4.88408633 L151.82518,18.3292699 C151.828948,19.0386892 151.543491,19.7201223 151.032402,20.2217644 C150.521312,20.7234065 149.827045,21.0035867 149.104265,21 L149.0855,21 Z" id="Path"></path> <path d="M170.51467,21 L170.261502,21 C169.045501,20.9205631 167.869003,20.5434547 166.839048,19.9029851 C165.794697,19.2454807 164.885066,18.4012058 164.157344,17.4139596 C163.4162,16.4069168 162.847656,15.2874294 162.474247,14.0998683 C161.677632,11.7417758 161.677632,9.19369392 162.474247,6.8356014 C162.870202,5.6229905 163.472606,4.485239 164.255798,3.47080773 C165.034194,2.46681488 166.003957,1.62141368 167.110969,0.981782265 C168.210098,0.354737921 169.454983,0.0166144581 170.725643,0 L192.338675,0 L192.591842,0 C193.807843,0.0794369359 194.984342,0.456545343 196.014296,1.09701493 C197.058647,1.75451933 197.968278,2.59879423 198.696,3.58604039 C199.442245,4.59175027 200.018501,5.70927999 200.402539,6.89552239 C201.199154,9.2536149 201.199154,11.8016968 200.402539,14.1597893 C200.006843,15.3734052 199.4027,16.5114473 198.616299,17.524583 C197.84187,18.5304781 196.873218,19.3762991 195.765817,20.0136084 C194.666441,20.6400754 193.421712,20.9781563 192.151143,20.9953907 L170.538111,20.9953907 L170.51467,21 Z M171.771132,5.32835821 C171.00051,5.31295965 170.238202,5.48725369 169.55357,5.83538191 C168.984207,6.15161976 168.491516,6.58568444 168.109575,7.10755048 C167.75772,7.60553626 167.512115,8.16843575 167.387578,8.76229148 C167.118789,9.89635406 167.118789,11.0759901 167.387578,12.2100527 C167.512115,12.8039084 167.75772,13.3668079 168.109575,13.8647937 C168.490486,14.3900033 168.983253,14.8272803 169.55357,15.1461809 C170.239742,15.4946892 171.00366,15.668983 171.775821,15.6532046 L190.908745,15.6532046 C191.739069,15.6852379 192.563886,15.5075018 193.304463,15.1369622 C193.882655,14.827766 194.382604,14.3945299 194.76721,13.869403 C195.119066,13.3714172 195.364671,12.8085177 195.489208,12.214662 C195.758056,11.0790493 195.758056,9.89790414 195.489208,8.76229148 C195.363823,8.17012097 195.118263,7.60889052 194.76721,7.11215979 C194.382604,6.58703289 193.882655,6.15379676 193.304463,5.84460053 C192.62252,5.49729886 191.864237,5.32002309 191.096277,5.32835821 L171.771132,5.32835821 Z" id="Shape"></path> </g> </g> </g> </g> </g> </svg> 