<?xml version="1.0" encoding="UTF-8"?> <svg xmlns="http://www.w3.org/2000/svg" width="204" height="85" viewBox="0 0 204 85"> <title>Group 15</title> <defs> <linearGradient id="a" x1="0%" x2="100%" y1="0%" y2="100%"> <stop offset="0%" stop-color="#DE131E"></stop> <stop offset="100%" stop-color="#8C2C2E"></stop> </linearGradient> <linearGradient id="b" x1="0%" x2="100%" y1="0%" y2="100%"> <stop offset="0%" stop-color="#ABCB3A"></stop> <stop offset="100%" stop-color="#5B7B3C"></stop> </linearGradient> <linearGradient id="c" x1="0%" x2="100%" y1="0%" y2="100%"> <stop offset="0%" stop-color="#E8C32A"></stop> <stop offset="100%" stop-color="#997032"></stop> </linearGradient> <linearGradient id="d" x1="0%" x2="100%" y1="0%" y2="100%"> <stop offset="0%" stop-color="#52C4E9"></stop> <stop offset="100%" stop-color="#0F80A8"></stop> </linearGradient> <linearGradient id="e" x1="0%" x2="100%" y1="0%" y2="100%"> <stop offset="0%" stop-color="#7ACCE2"></stop> <stop offset="100%" stop-color="#14739D"></stop> </linearGradient> </defs> <g fill="none" fill-rule="evenodd"> <path fill="url(#a)" d="M43.213 24.779l24.7-.125-.125 24.7-24.7.125z" transform="rotate(45 79 93.8)"></path> <path fill="url(#b)" d="M81.159 24.78l24.7-.125-.125 24.7-24.7.125z" transform="rotate(45 116.947 93.801)"></path> <path fill="url(#c)" d="M5.267 24.779l24.699-.125-.124 24.7-24.7.125z" transform="rotate(45 41.054 93.8)"></path> <path fill="url(#d)" d="M62.186 5.646l24.7-.125-.125 24.7-24.7.125z" transform="rotate(45 97.974 74.667)"></path> <path fill="url(#e)" d="M24.24 5.646l24.7-.125-.125 24.7-24.7.125z" transform="rotate(45 60.027 74.667)"></path> <g fill-rule="nonzero"> <path fill="#085372" d="M3.193 84.671v-.202c-.216-.023-.35-.06-.4-.11a.261.261 0 01-.077-.194v-6.31h.034l3 6.614 3.036-6.546.034.034v6.208a.261.261 0 01-.077.194c-.05.05-.184.087-.4.11v.202h3.41v-.202c-.216-.023-.35-.06-.4-.11a.261.261 0 01-.078-.194v-7.862c0-.078.026-.143.077-.194.051-.05.185-.087.4-.11v-.202h-4.62V76c.273.01.41.112.41.303 0 .057-.052.197-.154.422-.103.225-.236.506-.401.844-.165.337-.35.708-.554 1.113-.205.405-.404.821-.597 1.249a12.092 12.092 0 01-.188-.405 391.801 391.801 0 00-.69-1.527c-.13-.287-.25-.554-.358-.802a25.537 25.537 0 01-.264-.624 2.795 2.795 0 01-.103-.27c0-.19.137-.292.41-.303v-.203H.192V76c.215.022.349.059.4.11.05.05.077.115.077.193v7.862a.261.261 0 01-.077.194c-.051.05-.185.087-.4.11v.202h3zm13.607 0v-.202c-.125 0-.207-.014-.247-.042-.04-.029-.06-.07-.06-.127 0-.022.009-.059.026-.11l.085-.244.162-.456c.068-.191.16-.438.273-.742h4.04c.012.056.05.163.112.32l.196.498c.068.174.13.332.187.473.057.14.086.216.086.227 0 .124-.108.192-.324.203v.202h3.359v-.202a.321.321 0 01-.247-.101c-.063-.068-.14-.203-.23-.405-.183-.428-.384-.911-.606-1.451a217.79 217.79 0 00-.69-1.662 152.002 152.002 0 01-1.28-3.138c-.17-.433-.31-.784-.417-1.054-.108-.27-.162-.417-.162-.439 0-.09.028-.146.085-.169a.923.923 0 01.222-.05v-.203h-4.45V76c.079.01.156.028.23.05.073.023.11.062.11.118 0 .012-.042.13-.127.355l-.333.877c-.136.36-.293.768-.469 1.223-.176.456-.355.922-.537 1.4-.182.478-.364.948-.546 1.409l-.494 1.257c-.148.377-.267.689-.358.936-.091.248-.148.4-.17.456a.793.793 0 01-.171.278.56.56 0 01-.273.11v.202H16.8zm3.837-3.273h-3.172l1.518-4.015 1.654 4.015zm9.65 3.273v-.202c-.215-.023-.349-.06-.4-.11a.261.261 0 01-.077-.194v-2.834h1.671c.034.056.108.163.222.32.114.158.247.338.4.54l.478.633a30.932 30.932 0 01.793 1.105c.09.135.136.214.136.236 0 .191-.125.293-.375.304v.202h3.547v-.202c-.193 0-.358-.101-.495-.304l-2.012-2.8c.705-.192 1.288-.507 1.748-.945.46-.439.69-1.046.69-1.822 0-.956-.284-1.662-.852-2.118-.568-.455-1.483-.683-2.745-.683h-6.241V76c.216.022.35.059.4.11.052.05.077.115.077.193v7.862a.261.261 0 01-.076.194c-.051.05-.185.087-.401.11v.202h3.513zm2.388-5.129H29.81v-1.855h2.865c.5 0 .844.093 1.031.278a.886.886 0 01.282.65.886.886 0 01-.282.65c-.187.185-.531.277-1.031.277zm9.924 5.13v-.203c-.216-.023-.35-.06-.401-.11a.261.261 0 01-.077-.194v-2.024l1.671-1.485c.046.067.137.197.273.388s.29.416.46.675c.171.259.353.528.546.81a31.297 31.297 0 01.92 1.417c.103.168.154.27.154.303 0 .113-.028.178-.085.194a.878.878 0 01-.239.026v.202h3.905v-.202c-.114 0-.21-.011-.29-.034-.08-.022-.165-.101-.256-.236l-3.478-5.146 2.95-2.513c.102-.09.19-.166.264-.228a3.58 3.58 0 01.205-.16.694.694 0 01.204-.102c.074-.022.168-.04.282-.05v-.203h-4.331V76c.09.01.165.025.221.042.057.017.086.076.086.177 0 .045-.111.171-.333.38-.222.208-.497.46-.827.759-.33.298-.69.621-1.083.97-.392.348-.758.686-1.1 1.012h-.119v-3.037c0-.078.026-.143.077-.194.051-.05.185-.087.4-.11v-.202h-3.512V76c.216.022.35.059.4.11.052.05.078.115.078.193v7.862a.261.261 0 01-.077.194c-.051.05-.185.087-.4.11v.202h3.512zm17.818.32v-2.885h-.204c-.023.214-.057.351-.103.413-.045.062-.113.093-.204.093h-5.474v-1.569h3.172c.17 0 .293.037.366.11a.528.528 0 01.145.278h.205V78.8h-.205a.528.528 0 01-.145.279c-.073.073-.196.11-.366.11h-3.172v-1.401h5.474c.09 0 .159.03.204.093.046.062.08.188.103.38h.204v-2.936h-.204c-.023.191-.057.318-.103.38-.045.061-.113.092-.204.092h-8.509V76c.216.022.35.059.4.11.052.05.078.115.078.193v7.862a.261.261 0 01-.077.194c-.051.05-.185.087-.4.11v.202h8.508c.09 0 .159.017.204.05.046.035.08.125.103.27h.204zm7.93-.32v-.203c-.217-.023-.35-.06-.402-.11a.261.261 0 01-.076-.194v-6.31h2.933c.09 0 .159.031.204.093.046.062.08.189.102.38h.205v-3.003h-.205c-.022.191-.056.318-.102.38-.045.061-.114.092-.204.092h-8.424c-.09 0-.159-.03-.204-.093-.046-.061-.08-.188-.103-.38h-.204v3.004h.204c.023-.191.057-.318.103-.38.045-.062.113-.093.204-.093h2.933v6.31a.261.261 0 01-.077.194c-.05.05-.184.087-.4.11v.202h3.512zm9.207.05c.92 0 1.69-.085 2.31-.253.62-.169 1.114-.397 1.484-.684.37-.286.63-.61.784-.97.154-.36.23-.725.23-1.096 0-.484-.102-.886-.307-1.206a2.392 2.392 0 00-.801-.776 4.012 4.012 0 00-1.125-.448c-.421-.1-.853-.18-1.296-.236a21.925 21.925 0 00-1.296-.126c-.42-.028-.796-.065-1.126-.11a2.823 2.823 0 01-.801-.21c-.205-.096-.307-.24-.307-.431s.148-.371.443-.54c.296-.169.813-.253 1.552-.253.398 0 .807.028 1.228.084.42.057.801.127 1.142.211.341.085.623.18.844.287.222.107.333.211.333.312v.186l.204.101 1.177-2.345-.188-.068a1.11 1.11 0 01-.187.178.447.447 0 01-.273.076c-.114 0-.301-.037-.563-.11a23.44 23.44 0 00-.972-.245c-.386-.09-.83-.171-1.33-.244-.5-.073-1.04-.11-1.62-.11-.625 0-1.193.07-1.705.21-.511.141-.946.335-1.304.583a2.726 2.726 0 00-.836.894 2.307 2.307 0 00-.298 1.164c0 .54.173.965.52 1.274.347.31.782.545 1.304.708a8.616 8.616 0 001.689.338c.602.062 1.165.118 1.688.169.523.05.957.118 1.304.202.347.084.52.228.52.43 0 .371-.199.655-.597.852-.398.197-1.023.295-1.875.295a7.483 7.483 0 01-2.464-.439 3.94 3.94 0 01-.819-.396c-.21-.14-.315-.267-.315-.38 0-.168.011-.286.034-.354l-.17-.084-1.262 3.003.204.05a3.8 3.8 0 01.162-.151.263.263 0 01.18-.068c.102 0 .258.04.468.118.21.08.498.166.861.262.364.096.805.177 1.322.245.517.067 1.134.1 1.85.1zM124.506 84.671v-.202c-.216-.023-.35-.06-.4-.11a.261.261 0 01-.077-.194v-6.31h.034l3 6.614 3.036-6.546.034.034v6.208a.261.261 0 01-.077.194c-.051.05-.185.087-.4.11v.202h3.41v-.202c-.216-.023-.35-.06-.4-.11a.261.261 0 01-.078-.194v-7.862c0-.078.026-.143.077-.194.051-.05.185-.087.4-.11v-.202h-4.62V76c.273.01.41.112.41.303 0 .057-.052.197-.154.422-.103.225-.236.506-.401.844-.165.337-.35.708-.554 1.113-.205.405-.404.821-.597 1.249a12.091 12.091 0 01-.188-.405 391.746 391.746 0 00-.69-1.527c-.13-.287-.25-.554-.358-.802a25.542 25.542 0 01-.265-.624 2.795 2.795 0 01-.102-.27c0-.19.137-.292.41-.303v-.203h-4.451V76c.216.022.35.059.4.11.052.05.077.115.077.193v7.862a.261.261 0 01-.076.194c-.051.05-.185.087-.401.11v.202h3.001zm13.607 0v-.202c-.125 0-.208-.014-.247-.042-.04-.029-.06-.07-.06-.127 0-.022.009-.059.026-.11l.085-.244.162-.456c.068-.191.159-.438.273-.742h4.04c.012.056.05.163.112.32l.196.498c.068.174.13.332.187.473.057.14.086.216.086.227 0 .124-.108.192-.324.203v.202h3.359v-.202a.321.321 0 01-.248-.101c-.062-.068-.139-.203-.23-.405-.182-.428-.383-.911-.605-1.451-.222-.54-.452-1.094-.69-1.662a152.005 152.005 0 01-1.28-3.138c-.17-.433-.31-.784-.417-1.054-.108-.27-.162-.417-.162-.439 0-.09.028-.146.085-.169a.923.923 0 01.222-.05v-.203h-4.45V76c.079.01.156.028.23.05.073.023.11.062.11.118 0 .012-.042.13-.128.355l-.332.877c-.136.36-.293.768-.469 1.223-.176.456-.355.922-.537 1.4-.182.478-.364.948-.546 1.409l-.494 1.257c-.148.377-.267.689-.358.936-.091.248-.148.4-.17.456a.793.793 0 01-.171.278.56.56 0 01-.273.11v.202h3.018zm3.836-3.273h-3.171l1.518-4.015 1.653 4.015zm9.652 3.273v-.202c-.216-.023-.35-.06-.401-.11a.261.261 0 01-.077-.194v-2.834h1.671c.034.056.108.163.222.32.113.158.247.338.4.54l.478.633a30.928 30.928 0 01.793 1.105c.09.135.136.214.136.236 0 .191-.125.293-.375.304v.202h3.547v-.202c-.193 0-.358-.101-.495-.304l-2.012-2.8c.705-.192 1.288-.507 1.748-.945.46-.439.69-1.046.69-1.822 0-.956-.284-1.662-.852-2.118-.568-.455-1.483-.683-2.745-.683h-6.241V76c.216.022.35.059.4.11.052.05.077.115.077.193v7.862a.261.261 0 01-.076.194c-.051.05-.185.087-.401.11v.202h3.513zm2.387-5.129h-2.865v-1.855h2.865c.5 0 .844.093 1.031.278a.886.886 0 01.282.65.886.886 0 01-.282.65c-.187.185-.531.277-1.031.277zm9.924 5.13v-.203c-.216-.023-.35-.06-.401-.11a.261.261 0 01-.077-.194v-2.024l1.671-1.485c.046.067.137.197.273.388s.29.416.46.675c.17.259.353.528.546.81a31.296 31.296 0 01.92 1.417c.103.168.154.27.154.303 0 .113-.028.178-.085.194a.878.878 0 01-.239.026v.202h3.905v-.202c-.114 0-.21-.011-.29-.034-.08-.022-.165-.101-.256-.236l-3.478-5.146 2.95-2.513c.102-.09.19-.166.264-.228a3.58 3.58 0 01.205-.16.694.694 0 01.204-.102c.074-.022.168-.04.282-.05v-.203h-4.331V76c.09.01.164.025.221.042.057.017.086.076.086.177 0 .045-.111.171-.333.38-.222.208-.497.46-.827.759-.33.298-.69.621-1.083.97-.392.348-.758.686-1.1 1.012h-.119v-3.037c0-.078.026-.143.077-.194.051-.05.185-.087.4-.11v-.202H160.4V76c.216.022.35.059.4.11.052.05.077.115.077.193v7.862a.261.261 0 01-.076.194c-.051.05-.185.087-.401.11v.202h3.513zm17.818.32v-2.885h-.204c-.023.214-.057.351-.103.413-.045.062-.113.093-.204.093h-5.474v-1.569h3.172c.17 0 .292.037.366.11a.528.528 0 01.145.278h.205V78.8h-.205a.528.528 0 01-.145.279c-.074.073-.196.11-.366.11h-3.172v-1.401h5.474c.09 0 .159.03.204.093.046.062.08.188.103.38h.204v-2.936h-.204c-.023.191-.057.318-.103.38-.045.061-.113.092-.204.092h-8.509V76c.216.022.35.059.4.11.052.05.077.115.077.193v7.862a.261.261 0 01-.076.194c-.051.05-.185.087-.401.11v.202h8.509c.09 0 .159.017.204.05.046.035.08.125.103.27h.204zm7.929-.32v-.203c-.216-.023-.35-.06-.4-.11a.261.261 0 01-.077-.194v-6.31h2.932c.091 0 .16.031.205.093.045.062.08.189.102.38h.205v-3.003h-.205c-.022.191-.057.318-.102.38-.045.061-.114.092-.205.092h-8.423c-.09 0-.16-.03-.205-.093-.045-.061-.08-.188-.102-.38h-.204v3.004h.204c.023-.191.057-.318.102-.38.046-.062.114-.093.205-.093h2.933v6.31a.261.261 0 01-.077.194c-.051.05-.185.087-.4.11v.202h3.512zm9.208.05c.92 0 1.69-.085 2.31-.253.62-.169 1.114-.397 1.484-.684.37-.286.63-.61.784-.97.153-.36.23-.725.23-1.096 0-.484-.102-.886-.307-1.206a2.392 2.392 0 00-.801-.776 4.012 4.012 0 00-1.126-.448c-.42-.1-.852-.18-1.295-.236a21.925 21.925 0 00-1.296-.126c-.42-.028-.796-.065-1.126-.11a2.823 2.823 0 01-.801-.21c-.205-.096-.307-.24-.307-.431s.148-.371.443-.54c.296-.169.813-.253 1.552-.253.398 0 .807.028 1.228.084.42.057.801.127 1.142.211.341.085.622.18.844.287.222.107.333.211.333.312v.186l.204.101 1.177-2.345-.188-.068a1.11 1.11 0 01-.187.178.447.447 0 01-.273.076c-.114 0-.301-.037-.563-.11a23.44 23.44 0 00-.972-.245c-.386-.09-.83-.171-1.33-.244-.5-.073-1.04-.11-1.62-.11-.625 0-1.193.07-1.705.21-.511.141-.946.335-1.304.583a2.726 2.726 0 00-.836.894 2.307 2.307 0 00-.298 1.164c0 .54.173.965.52 1.274.347.31.781.545 1.304.708a8.616 8.616 0 001.688.338c.603.062 1.166.118 1.689.169.522.05.957.118 1.304.202.347.084.52.228.52.43 0 .371-.199.655-.597.852-.398.197-1.023.295-1.875.295a7.483 7.483 0 01-2.464-.439 3.94 3.94 0 01-.819-.396c-.21-.14-.315-.267-.315-.38 0-.168.011-.286.034-.354l-.17-.084-1.262 3.003.204.05a3.8 3.8 0 01.162-.151.263.263 0 01.18-.068c.101 0 .258.04.468.118.21.08.497.166.861.262s.804.177 1.322.245c.517.067 1.134.1 1.85.1z"></path> <path fill="#51C5E6" d="M89.743 83.793v-.16c-.1 0-.165-.012-.196-.034-.032-.022-.047-.056-.047-.1 0-.018.006-.047.02-.087l.067-.194.129-.36c.054-.152.126-.348.216-.588h3.199c.009.044.038.129.088.254.05.124.1.256.155.394l.148.374c.045.111.068.171.068.18 0 .098-.086.151-.257.16v.16h2.66v-.16a.254.254 0 0 1-.196-.08c-.05-.053-.11-.16-.182-.32a98.687 98.687 0 0 1-.48-1.15c-.175-.426-.357-.865-.546-1.315a120.334 120.334 0 0 1-1.013-2.484l-.33-.835a3.014 3.014 0 0 1-.129-.347c0-.071.023-.116.068-.133a.73.73 0 0 1 .175-.04v-.16h-3.523v.16c.063.008.124.022.182.04.059.017.088.049.088.093 0 .009-.034.102-.101.28l-.263.695c-.108.285-.232.608-.372.968l-.425 1.109c-.144.378-.288.75-.432 1.115l-.391.995c-.117.298-.212.546-.284.741-.072.196-.117.317-.135.361a.628.628 0 0 1-.135.22.443.443 0 0 1-.216.087v.16h2.39zM92.78 81.2h-2.51l1.2-3.178 1.31 3.178zm7.424 2.592v-.16c-.17-.019-.276-.048-.317-.088a.207.207 0 0 1-.06-.153v-4.194a202.777 202.777 0 0 0 2.591 2.825c.288.307.52.552.695.734.176.183.309.323.399.421.09.098.148.167.175.207.027.04.04.074.04.1 0 .045-.02.08-.06.107-.04.027-.124.04-.25.04v.16h2.565v-.16c-.171-.018-.277-.047-.317-.087a.207.207 0 0 1-.061-.153v-6.224c0-.062.02-.114.06-.154.041-.04.147-.069.318-.086v-.16h-2.47v.16c.189.008.283.089.283.24v3.566l-.58-.608a67.98 67.98 0 0 1-.702-.748 114.797 114.797 0 0 1-1.364-1.502 19.955 19.955 0 0 1-.459-.534c-.117-.143-.175-.223-.175-.24 0-.045.025-.083.074-.114.05-.032.15-.052.304-.06v-.16H97.64v.16c.17.017.276.046.317.086.04.04.06.092.06.154v6.224c0 .062-.02.113-.06.153-.04.04-.146.07-.317.087v.16h2.564zm12.27 0c.63 0 1.182-.098 1.655-.294a3.544 3.544 0 0 0 1.187-.782c.32-.325.558-.699.716-1.122a3.74 3.74 0 0 0 .236-1.315c0-.499-.074-.962-.223-1.39a3.087 3.087 0 0 0-.668-1.114 3.032 3.032 0 0 0-1.134-.742c-.459-.178-.999-.267-1.62-.267h-4.481v.16c.17.018.276.047.317.087.04.04.06.092.06.154v6.224c0 .062-.02.113-.06.153-.04.04-.146.07-.317.087v.16h4.333zm-.215-1.576h-1.714v-3.874h1.714c.71 0 1.224.18 1.539.541.315.36.472.826.472 1.396s-.157 1.035-.472 1.396c-.315.36-.828.54-1.54.54z"></path> </g> </g> </svg> 