<?xml version="1.0" encoding="UTF-8"?> <svg xmlns="http://www.w3.org/2000/svg" width="492" height="373" viewBox="0 0 492 373"> <title>Group</title> <g fill="#FFF" fill-rule="nonzero"> <path d="M228.3 253.1H137c-3.8 0-7.2.1-10.8-1.1-9.4-3.2-11.1-15-6.4-22.5 3.1-4.9 8.7-6.3 14.1-6.3h94.3c8.4 0 14.7 6.8 15 15 .3 8.3-6.9 14.7-14.9 14.9-9.7.3-9.7 15.3 0 15 12.3-.4 23.1-7.4 27.8-18.9 4.5-11 1.6-23.1-6.2-31.8-9.1-10.1-22.1-9.2-34.3-9.2h-81.7c-20 0-34.2 16.1-31.2 36 1.8 11.6 12.2 20.9 23.3 23.3 3.8.8 7.7.6 11.5.6h90.8c9.7 0 9.7-15 0-15z"></path> <path d="M462.6 357H29.5c-7.7 0-13.6-6.4-13.6-13.9V335v-87.4-35.3-6.6c.2-7 7.1-12.2 13.7-12.2H457.1c4.7 0 8.7-.3 13 2.3 7.8 4.7 6 15.9 6 23.6v123.7c0 7.7-5.9 13.6-13.5 13.9-9.6.3-9.7 15.3 0 15 12.8-.4 22.8-8 27.2-19.9 1.4-3.8 1.302-7.9 1.302-11.9v-32.6-89.2c0-11 .298-20.5-7.102-29.9-6-7.7-15.6-9.8-24.7-9.8h-429C14.4 178.7.9 191.1.9 207.3v136.1c0 16.2 13.5 28.6 29.3 28.6H462.5c9.7 0 9.7-15 .1-15z"></path> <path d="M393.7 357H98.3l7.5 7.5v-36c0-11.1-3.1-30.2 12.8-31.7 4.2-.4 8.7 0 12.9 0H366c5.9 0 11.3-.3 16.1 4.2 3.8 3.6 4.2 8.4 4.2 13.2V364.6c0 9.7 15 9.7 15 0v-36c0-15 1.7-30.9-12-41-7.3-5.4-15.4-5.7-23.9-5.7H128.6c-7 0-13.6-.3-20.2 2.5-10.6 4.5-17.6 15.3-17.6 26.7v53.6c0 4.1 3.4 7.5 7.5 7.5H393.7c9.7-.2 9.7-15.2 0-15.2zM382.1 178.6H109.9l7.5 7.5V39.8c0-9.4 0-19.6 10.8-23.6 5-1.9 11.6-1 16.9-1h203.7c6.7 0 13.1-.7 19 3.2 8 5.2 6.8 15.3 6.8 23.5v144.3c0 9.7 15 9.7 15 0V39.9c0-11.5-.9-22-9.7-30.8-7.7-7.7-17.8-8.8-28-8.8H134.2c-18.2 0-31.7 15.2-31.7 32.9V186.3c0 4.1 3.4 7.5 7.5 7.5H382.2c9.5-.2 9.5-15.2-.1-15.2z"></path> <path d="M137.5 53.6h82.2c9.7 0 9.7-15 0-15h-82.2c-9.6 0-9.6 15 0 15zM137.5 121.7h196.4c9.7 0 9.7-15 0-15H137.5c-9.6 0-9.6 15 0 15zM137.5 152.5h132.2c9.7 0 9.7-15 0-15H137.5c-9.6 0-9.6 15 0 15z"></path> </g> </svg> 