<?xml version="1.0" encoding="UTF-8"?> <svg xmlns="http://www.w3.org/2000/svg" width="288" height="401" viewBox="0 0 288 401"> <title>Group 27</title> <g fill="none" fill-rule="evenodd" stroke="#FFF" stroke-width="1.404" transform="translate(1.257 .812)"> <ellipse cx="84.575" cy="309.219" rx="84.575" ry="84.275" transform="matrix(-1 0 0 1 169.15 0)"></ellipse> <ellipse cx="84.575" cy="309.219" rx="71.207" ry="70.955" transform="matrix(-1 0 0 1 169.15 0)"></ellipse> <ellipse cx="83.632" cy="309.219" rx="9.683" ry="9.648" transform="matrix(-1 0 0 1 167.264 0)"></ellipse> <path d="M164.18 280.616l53.298.17s3.17 0 5.57-6.318c2.57-6.66 3.77-18.87 2.399-24.762-.771-3.244-3.17-8.965-12.254-9.648-7.283-.512-29.82 2.134-40.53 4.098-13.282 2.391-27.85 5.977-27.85 5.977M157.924 191.56v-.94c0-.768-.6-1.366-1.37-1.366H59.296a1.899 1.899 0 00-1.886 1.878v10.674c0 .683.257 1.366.772 1.878l3.17 3.16c.428.426 1.028.682 1.542.682h10.883c.6 0 1.2-.256 1.628-.683l2.057-2.049c.428-.427.942-.598 1.542-.598h29.391c.6 0 1.285-.256 1.714-.683l9.597-9.563c.343-.341.857-.512 1.285-.512h35.561c.771 0 1.371-.598 1.371-1.366v-.513z"></path> <path d="M156.553 193.267v.683c0 1.537-1.2 2.732-2.742 2.732H126.82c-.685 0-1.285.257-1.885.684l-5.227 4.183c-.428.342-1.028.598-1.628.598h-6.684"></path> <ellipse cx="65.209" cy="198.39" rx="2.571" ry="2.562" transform="matrix(-1 0 0 1 130.418 0)"></ellipse> <ellipse cx="200.511" cy="384.529" rx="14.053" ry="14.003" transform="matrix(-1 0 0 1 401.023 0)"></ellipse> <path d="M213.193 378.637l4.885-5.635c.6-.683 1.542-1.11 2.485-1.11h25.106c1.2 0 2.228-.94 2.314-2.05l.685-5.891c.172-1.622-.428-3.16-1.628-4.184-2.056-1.878-5.912-4.61-10.71-7.428-8.827-5.123-19.024-7.173-19.024-7.173v-1.964a1.899 1.899 0 0 0-1.885-1.878h-8.911s1.285-12.295-4.97-26.896c-4.285-9.905-11.226-17.59-13.11-21.005-.258-.427-.258-1.195 0-1.622l6.34-11.015h-17.137s-1.8 4.355-3.685 6.49c-1.885 2.134-4.285 3.244-5.141 3.5-.857.342-1.971.427-1.971.427"></path> <path d="M211.565 375.905l2.142-3.843c.515-.853.343-2.049-.342-2.732l-6.513-6.745c-.514-.598-.942-1.281-1.028-2.05l-.343-2.476c-.085-.853-.857-1.537-1.8-1.537h-11.824s-3.77-5.208-11.397-10.587c-6.94-4.953-17.052-6.66-17.052-6.66M168.807 301.706l7.369-3.416c1.885-.854 4.199-.512 5.741.94 3.17 2.988 8.397 9.05 11.397 18.186 4.541 13.833 3.17 24.335 3.17 24.335l-5.227 1.025a1.91 1.91 0 01-1.371-.257c-1.8-1.195-7.112-4.525-11.482-6.489-4.285-1.964-12.51-4.44-12.51-4.44"></path> <ellipse cx="201.197" cy="344.569" rx="1.885" ry="1.878" transform="matrix(-1 0 0 1 402.394 0)"></ellipse> <circle cx="200.426" cy="352.082" r="1.8" transform="matrix(-1 0 0 1 400.851 0)"></circle> <circle cx="83.718" cy="258.074" r="1.8" transform="matrix(-1 0 0 1 167.436 0)"></circle> <circle cx="83.718" cy="274.212" r="1.8" transform="matrix(-1 0 0 1 167.436 0)"></circle> <ellipse cx="83.718" cy="291.203" rx="1.885" ry="1.878" transform="matrix(-1 0 0 1 167.436 0)"></ellipse> <circle cx="38.046" cy="334.749" r="1.8" transform="matrix(-1 0 0 1 76.091 0)"></circle> <circle cx="52.27" cy="326.894" r="1.8" transform="matrix(-1 0 0 1 104.54 0)"></circle> <ellipse cx="67.18" cy="318.697" rx="1.885" ry="1.878" transform="matrix(-1 0 0 1 134.36 0)"></ellipse> <circle cx="127.162" cy="337.396" r="1.8" transform="matrix(-1 0 0 1 254.324 0)"></circle> <circle cx="113.794" cy="328.26" r="1.8" transform="matrix(-1 0 0 1 227.589 0)"></circle> <ellipse cx="99.742" cy="318.697" rx="1.885" ry="1.878" transform="matrix(-1 0 0 1 199.483 0)"></ellipse> <path d="M88.775 224.945s.598-7.685.513-13.833c-.086-6.147-.513-7.001-.513-7.001M87.06 189.254s-1.457-12.637-13.11-31.422c-11.74-18.784-21.423-34.41-23.736-41.24-1.371-4.184-4.542-13.833-6.684-20.663-1.457-4.526-5.741-7.429-10.54-7.173l-13.025.769c-2.142.085-3.77 1.964-3.598 4.098l5.398 70.443c.086.939.257 1.793.514 2.732l20.308 69.247M11.91 65.617c-1.199 15.455 5.913 19.98 14.996 20.749 9.083.683 16.795-2.733 17.995-18.187 1.2-15.455-1.114-36.801-13.625-37.74-13.453-1.025-18.166 19.723-19.365 35.178zM60.24 40.685c7.454 18.699 24.763 32.275 34.189 29.457 11.654-3.5 20.737-19.894 18.509-39.447C110.453 9.178 98.542-5.423 73.864 1.92 54.498 7.556 55.269 28.39 60.239 40.685z"></path> <path d="M53.727 124.02c.6-16.308.6-37.654 16.88-47.047 23.993-7.684 37.446 8.283 43.53 35.179 0 0 3.17 12.295 6.256 26.725 1.542 7.087 2.484 13.405 4.113 15.625 2.742 3.672 8.911 4.184 12.253 4.611l53.555 4.27c9.512.853 13.025 3.927 13.025 11.014l-.257 3.672a7.902 7.902 0 01-6.855 7.684l-7.54 1.025-32.22 2.476H111.91c-5.312 0-10.025-3.16-11.996-8.026l-15.338-37.399M126.82 196.682l1.284 7.002a3.509 3.509 0 003.6 2.818c13.11-.854 64.866-4.099 85.174-2.391 42.93 3.671 40.53 16.565 38.988 42.692-1.542 26.128-14.138 77.53-17.395 86.836-3.513 10.161-18.251 9.563-21.85 1.11-3.685-8.453-4.285-32.617-2.142-43.546 1.114-5.464 2.913-10.417 2.913-10.417M226.56 347.728s6.684-3.928 19.795-3.928c10.197 0 25.535 3.842 34.532 10.332 7.627 5.464 5.399 11.441-2.399 12.295-7.798.854-29.734 0-29.734 0M136.16 312.464c15.166-4.44 9.853-20.15 2.141-33.47-7.712-13.406-19.45-24.848-30.933-14.516-6.77 6.062-11.311 21.004-3.6 34.324 7.713 13.406 22.88 16.48 32.391 13.662zM54.498 352.936c-3.685 15.37 12.596 18.614 28.106 18.614 15.51 0 31.276-4.354 28.02-19.468-1.885-8.794-12.596-20.321-28.02-20.321-15.595 0-25.792 11.527-28.106 21.175zM60.153 262.258c-11.482-10.844-22.45 1.537-30.162 14.942-7.712 13.406-11.825 29.202 2.828 33.898 8.654 2.818 23.907-.683 31.619-14.089 7.712-13.405 2.913-28.006-4.285-34.751zM240.442 187.632c-2.399 5.72-8.483-2.306-19.88-3.672-10.282-1.28-17.052-4.952-14.652-10.673 2.399-5.72 12.082-7.172 21.593-3.245 9.597 3.928 15.339 11.784 12.94 17.59z"></path> </g> </svg> 